<svg width="280" height="190" viewBox="0 0 280 190" fill="none" xmlns="http://www.w3.org/2000/svg">
<path d="M265.311 114.212C271.214 112.8 274.855 106.87 273.443 100.967C272.032 95.0636 266.102 91.4226 260.198 92.8344C254.295 94.2462 250.654 100.176 252.066 106.079C253.478 111.982 259.408 115.623 265.311 114.212Z" fill="white"/>
<path d="M262.756 92.5375L262.933 92.5606L263.456 92.599L263.84 92.6221L264.298 92.6951C264.68 92.7469 265.057 92.8253 265.428 92.9297C266.452 93.1895 267.43 93.6017 268.331 94.1525C270.717 95.6056 272.46 97.9133 273.204 100.606C273.949 103.298 273.639 106.173 272.338 108.646C272.084 109.109 271.798 109.554 271.481 109.976C271.161 110.41 270.812 110.821 270.435 111.207C270.039 111.59 269.618 111.946 269.174 112.272C268.267 112.944 267.256 113.463 266.182 113.81C263.959 114.558 261.552 114.558 259.329 113.81C258.256 113.462 257.246 112.942 256.338 112.272C255.895 111.944 255.474 111.588 255.076 111.207C254.702 110.819 254.353 110.408 254.031 109.976C253.714 109.554 253.427 109.109 253.173 108.646C252.025 106.457 251.637 103.949 252.069 101.516C252.354 99.9977 252.957 98.5565 253.839 97.2873C254.72 96.0182 255.86 94.9499 257.184 94.1525C258.084 93.6011 259.063 93.1888 260.087 92.9297C260.458 92.8249 260.836 92.7465 261.218 92.6951L261.675 92.6221L262.06 92.599L262.583 92.5606L262.76 92.5375C262.701 92.5292 262.641 92.5292 262.583 92.5375H262.06H261.675C261.533 92.5375 261.379 92.5759 261.214 92.599C260.824 92.6396 260.439 92.7103 260.06 92.8105C259.02 93.0562 258.024 93.4595 257.107 94.0064C255.752 94.8044 254.583 95.8818 253.678 97.1667C252.772 98.4517 252.15 99.9148 251.854 101.459C251.484 103.41 251.645 105.424 252.319 107.292C252.498 107.789 252.71 108.273 252.954 108.742C253.475 109.699 254.121 110.582 254.877 111.368C255.281 111.761 255.711 112.126 256.165 112.46C257.097 113.154 258.136 113.692 259.241 114.052C261.517 114.821 263.983 114.821 266.259 114.052C267.364 113.692 268.403 113.154 269.335 112.46C269.789 112.127 270.22 111.762 270.623 111.368C271.009 110.973 271.366 110.552 271.692 110.107C272.016 109.674 272.308 109.217 272.565 108.742C272.81 108.274 273.022 107.789 273.2 107.292C273.874 105.424 274.035 103.41 273.665 101.459C273.369 99.9148 272.747 98.4517 271.841 97.1667C270.936 95.8818 269.767 94.8044 268.412 94.0064C267.495 93.4588 266.499 93.0555 265.459 92.8105C265.08 92.7121 264.695 92.6415 264.305 92.599C264.14 92.5759 263.986 92.549 263.844 92.5375H263.459H262.933C262.874 92.5292 262.814 92.5292 262.756 92.5375Z" fill="#E0E0E0"/>
<path d="M254.969 88.6875C254.601 88.6867 254.241 88.7951 253.935 88.9989C253.629 89.2027 253.391 89.4927 253.25 89.8323C253.108 90.1718 253.071 90.5456 253.143 90.9062C253.214 91.2669 253.391 91.5981 253.651 91.8581C253.911 92.1181 254.243 92.2951 254.603 92.3666C254.964 92.4382 255.338 92.4011 255.677 92.26C256.017 92.1189 256.307 91.8803 256.511 91.5743C256.714 91.2683 256.823 90.9086 256.822 90.541C256.822 90.0494 256.627 89.578 256.279 89.2304C255.932 88.8828 255.46 88.6875 254.969 88.6875Z" fill="white"/>
<path d="M254.967 88.6859C254.967 88.709 255.133 88.7128 255.406 88.7936C255.792 88.9102 256.129 89.1491 256.367 89.4742C256.559 89.7335 256.675 90.0409 256.703 90.3624C256.73 90.6838 256.668 91.0066 256.523 91.2948C256.378 91.5829 256.156 91.8251 255.881 91.9943C255.606 92.1635 255.29 92.2531 254.967 92.2531C254.645 92.2531 254.328 92.1635 254.054 91.9943C253.779 91.8251 253.557 91.5829 253.412 91.2948C253.266 91.0066 253.204 90.6838 253.232 90.3624C253.259 90.0409 253.376 89.7335 253.568 89.4742C253.804 89.1493 254.14 88.9104 254.525 88.7936C254.802 88.7128 254.967 88.709 254.967 88.6859C254.815 88.6465 254.655 88.6465 254.502 88.6859C254.072 88.7719 253.687 89.0093 253.418 89.355C253.212 89.6118 253.076 89.9171 253.022 90.2416C252.968 90.5661 252.998 90.899 253.11 91.2085C253.247 91.5913 253.499 91.9225 253.832 92.1566C254.164 92.3908 254.561 92.5164 254.967 92.5164C255.374 92.5164 255.771 92.3908 256.103 92.1566C256.436 91.9225 256.688 91.5913 256.825 91.2085C256.936 90.899 256.967 90.5661 256.913 90.2416C256.859 89.9171 256.723 89.6118 256.517 89.355C256.247 89.0101 255.862 88.7728 255.433 88.6859C255.28 88.6464 255.12 88.6464 254.967 88.6859Z" fill="#E0E0E0"/>
<path d="M262.609 108.596C262.416 108.608 262.223 108.581 262.042 108.516C261.86 108.451 261.693 108.35 261.552 108.218C261.411 108.087 261.298 107.929 261.219 107.752C261.141 107.576 261.1 107.385 261.098 107.192C261.158 106.834 261.343 106.508 261.621 106.273C261.899 106.037 262.251 105.908 262.615 105.908C262.979 105.908 263.331 106.037 263.608 106.273C263.886 106.508 264.072 106.834 264.132 107.192C264.128 107.386 264.086 107.577 264.007 107.754C263.927 107.93 263.813 108.089 263.671 108.22C263.528 108.352 263.361 108.453 263.178 108.517C262.996 108.582 262.802 108.609 262.609 108.596ZM263.624 105.066H261.605L261.098 99.1172H264.12L263.624 105.066Z" fill="#E0E0E0"/>
<path d="M13.5059 113.8C17.3307 115.297 21.4516 115.884 25.5423 115.513C29.633 115.142 33.5812 113.823 37.0741 111.662C29.964 109.755 19.8353 110.043 13.5059 113.8Z" fill="#EBEBEB"/>
<path d="M9.25 106.902C12.5156 108.18 16.0339 108.679 19.5261 108.361C23.0183 108.043 26.3883 106.915 29.3689 105.068C23.301 103.449 14.6566 103.695 9.25 106.902Z" fill="#EBEBEB"/>
<path d="M6.47656 100.62C9.09084 101.644 11.9077 102.044 14.7037 101.79C17.4998 101.536 20.1981 100.634 22.5848 99.155C17.7089 97.8514 10.7872 98.0514 6.47656 100.62Z" fill="#EBEBEB"/>
<path d="M36.0741 88.7695C37.9376 92.493 38.9078 96.5995 38.9078 100.763C38.9078 104.927 37.9376 109.033 36.0741 112.757C33.4939 105.754 32.8594 95.5027 36.0741 88.7695Z" fill="#EBEBEB"/>
<path d="M28.7271 85.1133C30.3163 88.2915 31.1437 91.7962 31.1437 95.3496C31.1437 98.9031 30.3163 102.408 28.7271 105.586C26.5237 99.6064 25.9853 90.8621 28.7271 85.1133Z" fill="#EBEBEB"/>
<path d="M22.1298 82.8789C23.4024 85.4251 24.0649 88.2326 24.0649 91.0791C24.0649 93.9257 23.4024 96.7331 22.1298 99.2793C20.3648 94.4919 19.9303 87.4818 22.1298 82.8789Z" fill="#EBEBEB"/>
<path d="M4 83.7305C6.50718 89.5254 13.3904 95.2204 19.5545 96.5855C16.532 89.8331 10.5948 84.6457 4 83.7305Z" fill="#EBEBEB"/>
<path d="M46.3486 121.24C46.2256 121.374 39.427 115.345 31.121 107.781C22.815 100.217 16.2164 93.9532 16.3356 93.8186C16.4548 93.684 23.2765 99.7135 31.5632 107.277C39.85 114.841 46.4717 121.105 46.3486 121.24Z" fill="#EBEBEB"/>
<path d="M192.403 53.3516C191.616 58.293 191.991 63.3498 193.497 68.1213C195.004 72.8928 197.6 77.2481 201.082 80.842C201.516 71.8939 198.525 59.9117 192.403 53.3516Z" fill="#EBEBEB"/>
<path d="M199.505 46.4961C198.835 50.7125 199.155 55.027 200.441 59.0982C201.726 63.1694 203.941 66.8856 206.911 69.9528C207.284 62.3236 204.731 52.0949 199.505 46.4961Z" fill="#EBEBEB"/>
<path d="M206.266 41.5547C205.728 44.9338 205.984 48.3919 207.014 51.655C208.044 54.9181 209.819 57.8966 212.2 60.3546C212.488 54.229 210.45 46.0384 206.266 41.5547Z" fill="#EBEBEB"/>
<path d="M228.069 73.7166C224.118 76.9008 219.481 79.1215 214.523 80.2027C209.565 81.284 204.424 81.1961 199.506 79.946C207.177 75.074 219.206 71.6362 228.069 73.7166Z" fill="#EBEBEB"/>
<path d="M230.518 64.0167C227.146 66.7367 223.186 68.6334 218.953 69.5566C214.72 70.4797 210.33 70.4037 206.131 69.3348C212.687 65.1626 222.962 62.244 230.518 64.0167Z" fill="#EBEBEB"/>
<path d="M231.46 55.5751C228.76 57.7515 225.59 59.2693 222.201 60.0081C218.813 60.747 215.299 60.6867 211.938 59.8319C217.179 56.4941 225.408 54.1562 231.46 55.5751Z" fill="#EBEBEB"/>
<path d="M225.744 34.2148C219.499 38.7062 214.508 48.3811 214.488 56.0757C221.721 50.723 226.355 42.3055 225.744 34.2148Z" fill="#EBEBEB"/>
<path d="M192.084 94.3965C191.904 94.3042 197.287 84.5985 204.155 72.7702C211.023 60.9419 216.733 51.4246 216.926 51.5361C217.118 51.6476 211.711 61.3302 204.851 73.1701C197.991 85.0099 192.288 94.508 192.084 94.3965Z" fill="#EBEBEB"/>
<path d="M231.126 143.6C227.489 142.004 223.529 141.278 219.562 141.478C215.594 141.678 211.728 142.8 208.27 144.754C215.076 146.877 224.87 146.984 231.126 143.6Z" fill="#EBEBEB"/>
<path d="M234.972 150.445C231.867 149.085 228.488 148.466 225.102 148.637C221.716 148.809 218.417 149.766 215.465 151.433C221.271 153.221 229.631 153.317 234.972 150.445Z" fill="#EBEBEB"/>
<path d="M237.419 156.596C234.932 155.506 232.226 155.01 229.515 155.147C226.804 155.285 224.162 156.052 221.799 157.388C226.444 158.841 233.139 158.903 237.419 156.596Z" fill="#EBEBEB"/>
<path d="M208.361 166.914C206.707 163.243 205.93 159.238 206.091 155.214C206.253 151.191 207.349 147.261 209.292 143.734C211.515 150.602 211.726 160.531 208.361 166.914Z" fill="#EBEBEB"/>
<path d="M215.321 170.73C213.91 167.596 213.249 164.177 213.39 160.744C213.53 157.311 214.467 153.957 216.128 150.949C218.005 156.81 218.193 165.285 215.321 170.73Z" fill="#EBEBEB"/>
<path d="M221.609 173.128C220.478 170.619 219.947 167.881 220.057 165.131C220.168 162.381 220.918 159.695 222.247 157.285C223.762 161.976 223.912 168.775 221.609 173.128Z" fill="#EBEBEB"/>
<path d="M239.161 173.017C236.961 167.322 230.532 161.554 224.629 160C227.282 166.637 232.823 171.878 239.161 173.017Z" fill="#EBEBEB"/>
<path d="M199.683 135.142C199.807 135.019 206.163 141.107 213.881 148.74C221.598 156.373 227.751 162.668 227.628 162.791C227.505 162.914 221.148 156.83 213.431 149.193C205.713 141.557 199.56 135.266 199.683 135.142Z" fill="#EBEBEB"/>
<path d="M212.949 9H55.5273V181.826H212.949V9Z" fill="#FAFAFA"/>
<path d="M29.3505 47.3967C35.6907 45.4353 39.2404 38.7055 37.279 32.3653C35.3176 26.0251 28.5878 22.4754 22.2476 24.4368C15.9073 26.3982 12.3576 33.128 14.319 39.4682C16.2804 45.8084 23.0102 49.3581 29.3505 47.3967Z" fill="white"/>
<path d="M25.7843 23.9027C25.8489 23.9154 25.9145 23.9231 25.9804 23.9258L26.5495 23.9681L26.9686 23.9988C27.1224 23.9988 27.2878 24.0488 27.4685 24.0757C27.8868 24.1323 28.3006 24.2184 28.7067 24.3334C29.8255 24.6154 30.8952 25.0652 31.8792 25.6677C34.2532 27.092 36.0574 29.2983 36.9822 31.9077C37.907 34.5172 37.8947 37.3672 36.9474 39.9686C36.754 40.4961 36.5253 41.01 36.2629 41.5067C35.9869 42.0132 35.6746 42.4989 35.3285 42.9603C34.9749 43.4358 34.5895 43.8867 34.1748 44.31C33.7415 44.724 33.2816 45.1093 32.7982 45.4636C31.8056 46.201 30.7006 46.7737 29.5258 47.1594C28.3152 47.5507 27.0526 47.7581 25.7804 47.7747C24.5073 47.7579 23.2437 47.5518 22.0312 47.1632C20.8641 46.7759 19.767 46.2033 18.7818 45.4674C18.2968 45.1153 17.8368 44.7298 17.4052 44.3138C16.9917 43.8896 16.6063 43.4387 16.2516 42.9641C15.56 42.0555 15.0139 41.0449 14.6327 39.9686C13.6903 37.3664 13.6808 34.5176 14.6059 31.9092C15.5311 29.3008 17.3333 27.0946 19.7047 25.6677C20.6888 25.0591 21.7599 24.604 22.881 24.318C23.2858 24.2026 23.6983 24.1165 24.1154 24.0604C24.2961 24.0334 24.4615 23.9988 24.6153 23.9834L25.0344 23.9527L25.6074 23.9335L25.7996 23.9104C25.7345 23.902 25.6686 23.902 25.6035 23.9104H25.0306L24.6306 23.9335C24.473 23.9335 24.3076 23.9758 24.1231 23.9988C23.7014 24.045 23.2837 24.1221 22.8733 24.2295C21.7359 24.4972 20.6465 24.9381 19.6432 25.537C17.2112 26.9659 15.356 29.2009 14.3994 31.8545C13.4428 34.508 13.4451 37.4127 14.4058 40.0647C14.6002 40.6098 14.8328 41.1405 15.1018 41.6528C15.3842 42.172 15.7028 42.6706 16.0555 43.1448C16.4082 43.6307 16.7936 44.0919 17.2091 44.5253C17.6514 44.9545 18.1216 45.354 18.6165 45.7212C19.6328 46.477 20.7635 47.0651 21.9658 47.4632C23.2091 47.863 24.5053 48.0743 25.8112 48.09C27.1175 48.0755 28.414 47.8629 29.6565 47.4593C30.8605 47.0652 31.9919 46.4768 33.0059 45.7174C33.5032 45.3546 33.9736 44.9562 34.4133 44.5253C34.8266 44.09 35.2119 43.629 35.5669 43.1448C35.9182 42.6697 36.2368 42.1712 36.5205 41.6528C36.7868 41.1397 37.0181 40.6091 37.2127 40.0647C37.9494 38.022 38.126 35.8193 37.7241 33.6853C37.3989 31.9964 36.7186 30.396 35.7281 28.9899C34.7377 27.5838 33.4598 26.4042 31.9791 25.5293C30.9758 24.9304 29.8864 24.4895 28.749 24.2219C28.3374 24.1144 27.9184 24.0373 27.4954 23.9911C27.3147 23.9681 27.1455 23.9373 26.9917 23.9258H26.5687H25.9958C25.9267 23.9083 25.8555 23.9005 25.7843 23.9027Z" fill="#E0E0E0"/>
<path d="M34.8839 47.8164C34.4823 47.8164 34.0898 47.9355 33.7559 48.1586C33.422 48.3817 33.1617 48.6988 33.0081 49.0698C32.8544 49.4408 32.8142 49.849 32.8925 50.2429C32.9709 50.6367 33.1642 50.9985 33.4482 51.2824C33.7321 51.5664 34.0939 51.7597 34.4878 51.8381C34.8816 51.9164 35.2899 51.8762 35.6609 51.7226C36.0318 51.5689 36.3489 51.3086 36.572 50.9748C36.7951 50.6409 36.9142 50.2483 36.9142 49.8468C36.9147 49.58 36.8626 49.3157 36.7607 49.0692C36.6588 48.8226 36.5093 48.5986 36.3207 48.41C36.132 48.2213 35.908 48.0718 35.6615 47.9699C35.4149 47.8681 35.1506 47.8159 34.8839 47.8164Z" fill="white"/>
<path d="M34.8824 47.8168C34.8824 47.8437 35.0632 47.8437 35.367 47.936C35.7887 48.0639 36.1572 48.3258 36.4167 48.682C36.631 48.9676 36.7614 49.3073 36.7935 49.6629C36.8256 50.0185 36.758 50.3761 36.5983 50.6954C36.4386 51.0148 36.1932 51.2834 35.8894 51.4711C35.5857 51.6588 35.2357 51.7583 34.8786 51.7583C34.5215 51.7583 34.1715 51.6588 33.8678 51.4711C33.564 51.2834 33.3186 51.0148 33.1589 50.6954C32.9992 50.3761 32.9316 50.0185 32.9637 49.6629C32.9958 49.3073 33.1262 48.9676 33.3405 48.682C33.5994 48.3252 33.9681 48.0631 34.3902 47.936C34.6902 47.8437 34.8748 47.8437 34.8709 47.8168C34.7043 47.7746 34.5299 47.7746 34.3633 47.8168C33.8948 47.9132 33.4753 48.1719 33.1789 48.5474C32.9553 48.8287 32.8069 49.1624 32.7477 49.5169C32.6885 49.8714 32.7204 50.2351 32.8406 50.5739C32.9889 50.9938 33.2639 51.3574 33.6275 51.6145C33.9911 51.8717 34.4255 52.0098 34.8709 52.0098C35.3163 52.0098 35.7507 51.8717 36.1143 51.6145C36.4779 51.3574 36.7529 50.9938 36.9013 50.5739C37.0208 50.2353 37.0528 49.872 36.9943 49.5177C36.9359 49.1634 36.7888 48.8296 36.5667 48.5474C36.2697 48.1727 35.8505 47.9141 35.3823 47.8168C35.2181 47.777 35.0467 47.777 34.8824 47.8168Z" fill="#E0E0E0"/>
<path d="M26.0734 41.3983C25.862 41.4142 25.6495 41.3862 25.4493 41.3161C25.2492 41.2459 25.0657 41.1352 24.9104 40.9907C24.7552 40.8463 24.6314 40.6713 24.547 40.4767C24.4626 40.2822 24.4193 40.0723 24.4199 39.8602C24.4547 39.444 24.6445 39.0561 24.9519 38.7733C25.2592 38.4906 25.6616 38.3336 26.0792 38.3336C26.4968 38.3336 26.8992 38.4906 27.2065 38.7733C27.5139 39.0561 27.7037 39.444 27.7385 39.8602C27.7347 40.072 27.6881 40.2808 27.6015 40.4741C27.5149 40.6673 27.39 40.8411 27.2344 40.9848C27.0788 41.1285 26.8958 41.2393 26.6962 41.3103C26.4967 41.3814 26.2848 41.4113 26.0734 41.3983ZM27.1847 37.553H24.9737L24.4199 31.0312H27.7077L27.1847 37.553Z" fill="#E0E0E0"/>
<path d="M101.119 89.1953H80.3574V94.6865H101.119V89.1953Z" fill="#E0E0E0"/>
<path d="M92.3421 100.45C92.3363 100.417 92.3363 100.383 92.3421 100.35C92.3421 100.277 92.3421 100.185 92.3421 100.07C92.3421 99.812 92.3421 99.4506 92.3421 98.9891C92.3421 98.0432 92.3421 96.6819 92.3075 94.9592L92.3728 95.0246L71.6079 95.0669C71.654 95.0169 71.5002 95.1707 71.7117 94.9592V97.7586C71.7117 98.6738 71.7117 99.5775 71.7117 100.45L71.6079 100.35L86.4048 100.397L90.7731 100.423H91.9537H92.2613H92.3728C92.3411 100.429 92.3084 100.429 92.2767 100.423H91.9806H90.827L86.4856 100.454L71.6155 100.5H71.5117V94.9784C71.7232 94.7669 71.5694 94.9208 71.6194 94.8746L92.3844 94.9131H92.4459V94.9784C92.4459 96.7127 92.419 98.0893 92.4113 99.0468C92.4113 99.5044 92.4113 99.8582 92.4113 100.112C92.4113 100.223 92.4113 100.312 92.4113 100.385C92.39 100.409 92.3668 100.43 92.3421 100.45Z" fill="#263238"/>
<path d="M195.673 144.961H174.912V150.452H195.673V144.961Z" fill="#E0E0E0"/>
<path d="M128.663 130.828H107.902V136.319H128.663V130.828Z" fill="#EBEBEB"/>
<path d="M186.906 156.24C186.906 156.24 186.906 156.201 186.906 156.14V155.855C186.906 155.597 186.906 155.236 186.906 154.774C186.906 153.828 186.906 152.467 186.872 150.745L186.933 150.81L166.168 150.852L166.276 150.745V152.148C166.276 152.613 166.276 153.075 166.276 153.532V156.224L166.172 156.12L180.969 156.166L185.334 156.197H186.518H186.826C186.861 156.192 186.898 156.192 186.933 156.197H186.837H186.541H185.388L181.046 156.224L166.176 156.27H166.072V150.748L166.176 150.645L186.941 150.683H187.006V150.748C187.006 152.483 186.98 153.859 186.972 154.817C186.972 155.274 186.972 155.628 186.972 155.886C186.972 155.993 186.972 156.086 186.972 156.155C186.954 156.186 186.932 156.215 186.906 156.24Z" fill="#263238"/>
<path d="M128.663 45.8789H107.902V51.3701H128.663V45.8789Z" fill="#E0E0E0"/>
<path d="M90.806 22.7773H70.0449V28.2685H90.806V22.7773Z" fill="#EBEBEB"/>
<path d="M119.885 57.1614C119.885 57.1614 119.885 57.1229 119.885 57.0614C119.885 56.9999 119.885 56.8922 119.885 56.7769C119.885 56.5192 119.885 56.1578 119.885 55.6963C119.885 54.7504 119.866 53.3891 119.85 51.6664L119.912 51.7318L99.1469 51.7741L99.2546 51.6664V53.0699C99.2546 53.5352 99.2546 53.9967 99.2546 54.4543V57.146L99.1508 57.0422L113.948 57.0883L118.316 57.1191H119.497H119.804C119.84 57.1135 119.876 57.1135 119.912 57.1191H119.816H119.52H118.366L114.025 57.146L99.1546 57.1922H99.0508V51.6702L99.1546 51.5664L119.92 51.6049H119.985V51.6702C119.985 53.4045 119.958 54.7811 119.95 55.7386C119.95 56.1962 119.95 56.55 119.95 56.8076C119.95 56.9153 119.95 57.0076 119.95 57.0768C119.935 57.1097 119.913 57.1387 119.885 57.1614Z" fill="#263238"/>
<path d="M191.805 64.8016C191.802 64.7684 191.802 64.7349 191.805 64.7017C191.805 64.6286 191.805 64.5325 191.805 64.4171C191.805 64.1595 191.805 63.798 191.805 63.3366C191.805 62.3906 191.805 61.0293 191.77 59.3066L191.836 59.372L171.071 59.4143C171.117 59.3643 170.963 59.5181 171.175 59.3066V62.0945C171.175 63.0097 171.175 63.9134 171.175 64.7863L171.075 64.6824L185.868 64.7286L190.236 64.7593H191.417H191.724C191.761 64.7539 191.799 64.7539 191.836 64.7593H191.74H191.443H190.29L185.945 64.7863L171.078 64.8362H170.975V64.7324C170.975 63.848 170.975 62.9443 170.975 62.0407V59.3105C171.186 59.099 171.032 59.2528 171.082 59.2066L191.847 59.2451H191.913V59.3105C191.913 61.0447 191.882 62.4214 191.874 63.3789C191.874 63.8365 191.874 64.1902 191.874 64.4479V64.717C191.809 64.7747 191.805 64.8016 191.805 64.8016Z" fill="#263238"/>
<path d="M194.62 59.3059C194.617 59.2714 194.617 59.2366 194.62 59.2021C194.62 59.1252 194.62 59.0291 194.62 58.9099C194.62 58.6407 194.62 58.2754 194.62 57.8101C194.62 56.8487 194.597 55.5029 194.578 53.8148L194.654 53.8917L182.18 53.9186L182.284 53.8148V56.6411C182.284 57.5601 182.284 58.4484 182.284 59.3021L182.184 59.2021L191.105 59.2483L193.705 59.279H194.408H194.658C194.583 59.2845 194.507 59.2845 194.431 59.279H193.751L191.174 59.3059L182.184 59.3521H182.084V59.3059C182.084 58.4523 182.084 57.5653 182.084 56.6449C182.084 56.1835 182.084 55.7182 182.084 55.2452V53.8186L182.192 53.7109L194.666 53.7417H194.743V53.8186C194.743 55.5106 194.712 56.8949 194.701 57.8601C194.701 58.3177 194.701 58.6791 194.701 58.9445C194.681 59.0665 194.654 59.1872 194.62 59.3059Z" fill="#263238"/>
<path d="M165.963 107.263C165.96 107.23 165.96 107.196 165.963 107.163C165.963 107.09 165.963 106.998 165.963 106.882C165.963 106.621 165.963 106.263 165.963 105.802C165.963 104.852 165.963 103.495 165.929 101.772L165.994 101.833L145.229 101.876L145.333 101.772V104.552C145.333 105.471 145.333 106.371 145.333 107.244L145.229 107.14L160.026 107.186L164.394 107.217H165.575H165.882H165.994H165.898H165.602H164.448L160.107 107.248L145.237 107.294H145.133V101.78L145.24 101.672L166.005 101.714H166.071V101.78C166.071 103.514 166.044 104.89 166.036 105.848C166.036 106.302 166.036 106.659 166.036 106.913C166.036 107.025 166.036 107.113 166.036 107.182C166.014 107.211 165.99 107.238 165.963 107.263Z" fill="#263238"/>
<path d="M178.356 25.5321C178.351 25.499 178.351 25.4653 178.356 25.4321V25.1476C178.356 24.8899 178.356 24.5285 178.356 24.067C178.356 23.1211 178.336 21.7598 178.321 20.0371L178.386 20.1025L157.622 20.1448C157.668 20.0948 157.514 20.2486 157.725 20.0371V22.825C157.725 23.7402 157.725 24.6438 157.725 25.5167L157.622 25.4129L172.418 25.459L176.787 25.4898H177.967H178.275C178.312 25.4847 178.349 25.4847 178.386 25.4898H178.29H177.994H176.841L172.499 25.5167L157.629 25.5629H157.525V20.0409C157.737 19.8294 157.583 19.9833 157.633 19.9371L178.398 19.9756H178.46V20.0409C178.46 21.7752 178.433 23.1518 178.425 24.1093C178.425 24.5669 178.425 24.9207 178.425 25.1783C178.425 25.286 178.425 25.3744 178.425 25.4475C178.404 25.4773 178.381 25.5055 178.356 25.5321Z" fill="#263238"/>
<path d="M105.942 174.715C105.942 174.715 105.942 174.681 105.942 174.615C105.942 174.55 105.942 174.45 105.942 174.335C105.942 174.077 105.942 173.716 105.942 173.254C105.942 172.304 105.918 170.947 105.903 169.224L105.968 169.286L85.2035 169.328L85.3073 169.224V174.708L85.2035 174.604L100 174.65L104.365 174.681H105.545H105.857H105.965C105.933 174.685 105.9 174.685 105.868 174.681H105.572H104.419L100.074 174.711L85.2073 174.758H85.1035V174.654C85.1035 173.769 85.1035 172.872 85.1035 171.962V169.182L85.2112 169.074L105.976 169.117H106.042V169.182C106.042 170.916 106.015 172.293 106.007 173.25C106.007 173.704 106.007 174.062 106.007 174.315C106.007 174.427 106.007 174.515 106.007 174.585C106.007 174.654 105.945 174.719 105.942 174.715Z" fill="#263238"/>
<path d="M53.5507 70.2578L45.8945 79.7558C47.6096 82.3194 49.3233 84.8945 51.0358 87.4812C52.6489 84.9513 53.7071 82.1081 54.1406 79.1392C54.5741 76.1703 54.373 73.1433 53.5507 70.2578Z" fill="#263238"/>
<path d="M27.0516 59.1271C29.2089 57.0968 32.1967 56.1085 35.1538 55.9393C38.1109 55.7701 41.0641 56.3585 43.9213 57.1468C45.5248 57.589 47.1437 58.112 48.4742 59.1117C50.9006 60.9344 53.6039 63.3686 54.3653 66.3026C55.8726 72.1129 55.1343 78.0232 54.4845 79.6536C53.6577 81.7455 51.2736 82.8799 49.2778 83.922L23.8984 66.341C23.9193 64.9895 24.2089 63.6557 24.7502 62.4173C25.2916 61.1788 26.0739 60.0604 27.0516 59.1271Z" fill="#263238"/>
<path d="M24.4882 63.0573L28.9411 61.0039C27.9759 67.7525 30.9061 81.838 31.1214 88.652C28.7488 86.6101 22.7655 80.0346 22.1925 76.9506C21.6195 73.8666 18.8047 63.9879 24.4882 63.0573Z" fill="#263238"/>
<path d="M24.405 73.6686C23.4783 68.9235 25.1049 62.3864 29.8847 61.6865L41.3593 61.6173C45.0393 61.5981 48.1002 63.9245 49.2769 67.3853C49.3345 67.5584 49.2769 67.3392 49.3269 67.4738L50.865 77.7832L55.1487 94.3182C54.5181 99.0403 48.2617 102.009 42.1937 104.701C42.0514 104.316 40.9363 100.798 40.9363 100.798C40.9363 100.798 39.3635 94.6451 39.3635 94.672C39.3635 94.6989 31.5113 95.6295 28.2619 88.1618C26.6354 84.4664 25.401 78.9406 24.405 73.6686Z" fill="#FFBF9D"/>
<path d="M29.8201 78.7509C29.8824 79.0138 30.0455 79.2417 30.2742 79.3855C30.5029 79.5294 30.779 79.5777 31.0429 79.52C31.3013 79.4723 31.5303 79.324 31.6795 79.1078C31.8287 78.8915 31.8861 78.6249 31.8389 78.3664C31.7757 78.104 31.6125 77.8767 31.384 77.733C31.1555 77.5893 30.88 77.5406 30.6161 77.5973C30.4877 77.6199 30.3651 77.6679 30.2553 77.7383C30.1456 77.8088 30.051 77.9003 29.9769 78.0076C29.9028 78.115 29.8508 78.2359 29.8239 78.3635C29.797 78.4911 29.7957 78.6228 29.8201 78.7509Z" fill="#263238"/>
<path d="M26.3649 76.4162C26.5225 76.5123 27.1339 75.7586 28.2068 75.4818C29.2796 75.2049 30.2102 75.5433 30.291 75.3818C30.3333 75.3087 30.1487 75.1049 29.7411 74.9434C29.1923 74.7416 28.5945 74.7148 28.0299 74.8665C27.4697 75.0069 26.9696 75.3237 26.6033 75.7702C26.3379 76.1085 26.2879 76.3739 26.3649 76.4162Z" fill="#263238"/>
<path d="M39.0654 76.4039C39.1278 76.6668 39.2908 76.8947 39.5195 77.0385C39.7483 77.1824 40.0243 77.2306 40.2883 77.1729C40.4169 77.1508 40.5398 77.1031 40.6498 77.0328C40.7598 76.9625 40.8547 76.871 40.9288 76.7635C41.003 76.6561 41.0549 76.5349 41.0816 76.4071C41.1083 76.2793 41.1092 76.1475 41.0842 76.0193C41.0228 75.7567 40.8605 75.5289 40.6324 75.3849C40.4043 75.241 40.1287 75.1927 39.8653 75.2503C39.7367 75.2729 39.614 75.3209 39.5041 75.3913C39.3942 75.4617 39.2993 75.5531 39.2249 75.6604C39.1506 75.7676 39.0982 75.8886 39.0708 76.0162C39.0434 76.1438 39.0416 76.2755 39.0654 76.4039Z" fill="#263238"/>
<path d="M36.5512 73.7599C36.7088 73.8561 37.3203 73.1024 38.397 72.8255C39.4737 72.5486 40.3965 72.887 40.4811 72.7255C40.5234 72.6525 40.335 72.4487 39.9274 72.2872C39.3787 72.0854 38.7809 72.0585 38.2162 72.2102C37.6575 72.3514 37.1587 72.6681 36.7934 73.1139C36.5512 73.4523 36.4858 73.7138 36.5512 73.7599Z" fill="#263238"/>
<path d="M35.3967 83.0632C35.3967 83.0017 34.6892 83.0632 33.5702 83.1978C33.2895 83.2401 33.0165 83.2516 32.9203 83.0786C32.8245 82.8008 32.8151 82.5005 32.8934 82.2172C32.9818 81.4866 33.0703 80.7214 33.1664 79.91C33.524 76.6453 33.7086 73.992 33.5779 73.9766C33.4471 73.9612 33.0511 76.6145 32.705 79.8716C32.6242 80.6752 32.5435 81.4405 32.4704 82.1788C32.3831 82.5535 32.4307 82.947 32.605 83.2901C32.6689 83.3772 32.7522 83.4483 32.8483 83.4977C32.9444 83.5471 33.0507 83.5734 33.1587 83.5746C33.3219 83.5788 33.485 83.5607 33.6433 83.5208C34.7353 83.2939 35.3967 83.1247 35.3967 83.0632Z" fill="#263238"/>
<path d="M48.9574 89.2305C48.9574 89.2305 47.8038 95.2369 39.84 96.5174L39.3594 94.687C43.0023 93.7921 46.3251 91.9031 48.9574 89.2305Z" fill="#FF9A6C"/>
<path d="M35.8846 69.7883C36.0654 70.0536 37.1036 69.6383 38.4033 69.4652C39.7031 69.2922 40.8105 69.3691 40.9105 69.0807C40.9528 68.9346 40.7029 68.6962 40.2184 68.5308C39.5778 68.3237 38.8985 68.2656 38.2321 68.3609C37.5657 68.4562 36.9298 68.7024 36.373 69.0807C35.9769 69.373 35.8039 69.6614 35.8846 69.7883Z" fill="#263238"/>
<path d="M25.8582 73.0367C26.112 73.2328 26.7849 72.7867 27.6732 72.5445C28.5615 72.3022 29.3575 72.283 29.4651 71.983C29.5113 71.8408 29.3267 71.6293 28.9383 71.4831C28.4251 71.3198 27.8748 71.313 27.3578 71.4637C26.8407 71.6144 26.3802 71.9157 26.0351 72.3291C25.7851 72.6598 25.7467 72.9405 25.8582 73.0367Z" fill="#263238"/>
<path d="M24.6637 66.0126C24.8329 64.7206 25.9327 63.6823 27.1786 63.2901C28.4445 62.9596 29.7785 62.9969 31.024 63.3978C36.3575 64.8705 40.422 70.7039 45.7248 72.2959C47.0245 72.6804 48.3281 71.6768 49.5202 72.3305C50.7122 72.9842 51.712 74.2532 51.4967 75.6068C51.9407 74.6219 52.2399 73.578 52.385 72.5074C52.4539 71.9708 52.4076 71.4258 52.2491 70.9085C52.0906 70.3913 51.8236 69.9138 51.4659 69.508C50.8891 68.9235 50.0547 68.5813 49.6624 67.8622C49.3164 67.2316 49.401 66.4548 49.1895 65.7665C48.9272 65.0778 48.5055 64.4611 47.9589 63.9669C45.3403 61.2751 42.1255 59.0371 38.484 58.0835C36.1003 57.4201 33.5807 57.4201 31.197 58.0835C28.8127 58.7802 26.756 60.3064 25.3982 62.3864C24.6291 63.6092 23.8062 64.8744 24.6753 66.0318" fill="#263238"/>
<path d="M49.6797 73.3252C49.7028 73.083 53.3789 70.5604 54.5556 74.8634C55.7092 79.0394 51.2563 79.3163 51.2178 79.1971C51.1794 79.0779 49.6797 73.3252 49.6797 73.3252Z" fill="#FFBF9D"/>
<path d="M52.0778 77.2632C52.0778 77.244 52.1624 77.294 52.3008 77.3171C52.495 77.3426 52.6917 77.2931 52.8507 77.1786C53.2352 76.8979 53.4313 76.0981 53.2352 75.3367C53.1492 74.9758 52.9822 74.6391 52.7468 74.3523C52.6736 74.2318 52.5718 74.1312 52.4504 74.0594C52.329 73.9876 52.1917 73.9469 52.0508 73.9408C51.9598 73.9393 51.8712 73.9702 51.8007 74.028C51.7303 74.0857 51.6827 74.1666 51.6663 74.2562C51.6432 74.3869 51.6894 74.4638 51.6663 74.4753C51.6432 74.4869 51.5586 74.433 51.5432 74.2485C51.5395 74.1392 51.5735 74.0319 51.6394 73.9447C51.6852 73.8842 51.743 73.8339 51.8091 73.7968C51.8753 73.7597 51.9484 73.7368 52.0239 73.7293C52.2046 73.7162 52.3856 73.75 52.5493 73.8275C52.7131 73.9049 52.854 74.0235 52.9583 74.1716C53.2356 74.4843 53.4312 74.8608 53.5275 75.2675C53.7274 76.1173 53.5275 77.021 52.9545 77.3594C52.8513 77.4229 52.735 77.4621 52.6145 77.4741C52.4939 77.4861 52.3722 77.4705 52.2585 77.4286C52.1124 77.3594 52.0662 77.2748 52.0778 77.2632Z" fill="#FF9A6C"/>
<path d="M50.779 70.7342C50.6808 70.7185 50.5843 70.6941 50.4906 70.6611C50.3021 70.5996 50.0214 70.5265 49.6715 70.3958C48.6887 70.0072 47.7503 69.5147 46.8721 68.9269C45.5858 68.0382 44.3496 67.0792 43.169 66.0544C41.7405 64.7936 40.2085 63.6552 38.5892 62.6512C37.7383 62.1585 36.8355 61.7613 35.8974 61.4669C35.0223 61.2035 34.1184 61.0472 33.2056 61.0016C31.654 60.9178 30.1004 61.1265 28.6258 61.6168C27.6291 61.9426 26.6801 62.3991 25.8033 62.9743C25.488 63.1704 25.2611 63.3588 25.1035 63.4665C25.0248 63.5295 24.9413 63.5861 24.8535 63.6357C24.9204 63.5611 24.9952 63.494 25.0765 63.4357C25.2937 63.2475 25.5223 63.0728 25.761 62.9127C26.6278 62.3053 27.5769 61.8248 28.5797 61.4861C30.0683 60.9684 31.6431 60.7438 33.2172 60.8247C34.1466 60.8654 35.0674 61.0204 35.9589 61.2861C36.911 61.5843 37.8278 61.9853 38.693 62.482C40.3285 63.4912 41.8725 64.6415 43.3074 65.9198C44.4789 66.9467 45.702 67.9132 46.9721 68.8153C47.8365 69.4084 48.7575 69.9146 49.7215 70.3266C50.0637 70.4688 50.3444 70.5534 50.5252 70.6265C50.6133 70.6535 50.6983 70.6896 50.779 70.7342Z" fill="#455A64"/>
<path d="M50.0396 72.1937C50.4011 73.3204 50.7703 74.5009 50.5049 75.6545C50.2396 76.8081 49.0898 77.8502 47.9439 77.5388C47.0133 77.2888 46.4981 76.3121 46.1212 75.4238C45.0291 72.8551 44.1409 70.2057 43.0449 67.6523L50.0396 72.1937Z" fill="#263238"/>
<path d="M25.1758 63.7534C25.1758 63.7765 25.5257 63.5881 26.191 63.392C27.1361 63.1279 28.1243 63.0547 29.0981 63.1766C29.7682 63.2512 30.4284 63.3982 31.0669 63.615C31.801 63.8725 32.5188 64.1743 33.2164 64.5187C34.8226 65.2902 36.3294 66.2534 37.704 67.3873C38.4308 67.9949 39.1037 68.6409 39.7997 69.2177C40.4635 69.7869 41.1929 70.2748 41.9723 70.6712C43.299 71.3084 44.6935 71.7934 46.1292 72.1171C47.3482 72.4016 48.3479 72.567 49.0401 72.6785L49.8361 72.7977C49.9282 72.8183 50.0226 72.826 50.1168 72.8208C50.0282 72.7881 49.9369 72.7636 49.8438 72.7477L49.0555 72.5862C48.371 72.4439 47.3789 72.2555 46.1715 71.9479C44.7572 71.6052 43.385 71.1075 42.08 70.4636C41.3187 70.0719 40.6062 69.5917 39.9574 69.0331C39.2729 68.4601 38.6038 67.8103 37.8693 67.195C36.4752 66.0493 34.9447 65.0806 33.3126 64.311C32.6047 63.9704 31.8766 63.6738 31.1323 63.4227C30.4784 63.2073 29.8026 63.0654 29.1173 62.9997C28.123 62.8905 27.1169 62.9914 26.164 63.2958C25.9075 63.3797 25.6581 63.4839 25.418 63.6073C25.331 63.6447 25.2495 63.6939 25.1758 63.7534Z" fill="#455A64"/>
<path d="M49.0098 69.1801C49.1485 69.2504 49.2959 69.3022 49.4481 69.3339L50.671 69.68L51.0824 69.7915C51.2433 69.839 51.4126 69.8508 51.5785 69.8261C51.6805 69.8103 51.7741 69.7601 51.8438 69.6838C51.8817 69.6416 51.909 69.591 51.9237 69.5363C51.9384 69.4815 51.94 69.424 51.9284 69.3685C51.8694 69.1775 51.7525 69.0095 51.5939 68.8878L49.8481 67.2382L49.7212 67.4343C50.2112 67.6305 50.7317 67.7398 51.2593 67.7573C51.7807 67.7759 52.3012 67.703 52.7975 67.542C52.9259 67.5061 53.0478 67.4503 53.1589 67.3766C53.2253 67.3379 53.2824 67.2852 53.3263 67.2221C53.3701 67.159 53.3996 67.087 53.4127 67.0113C53.4184 66.9337 53.4049 66.856 53.3734 66.7849C53.3419 66.7138 53.2933 66.6515 53.232 66.6037C53.1355 66.5281 53.0326 66.4612 52.9243 66.4037C52.233 66.0128 51.5957 65.5332 51.0286 64.9771C50.519 64.447 50.0474 63.8816 49.6173 63.2852C49.6885 63.4718 49.7828 63.6488 49.898 63.812C50.1884 64.2739 50.526 64.7043 50.9055 65.0963C51.472 65.686 52.1193 66.1923 52.8282 66.5999C53.0243 66.7075 53.2128 66.8344 53.2128 66.9844C53.2128 67.1344 52.9743 67.2574 52.7552 67.3151C52.2818 67.4648 51.7861 67.5311 51.2901 67.5112C50.7961 67.4949 50.3085 67.3948 49.8481 67.2151L49.252 66.9805L49.725 67.4112L51.49 69.0417C51.6175 69.1325 51.7162 69.2579 51.7746 69.4031C51.8015 69.5223 51.7169 69.6185 51.5823 69.6454C51.2993 69.6611 51.016 69.622 50.7479 69.53L49.5058 69.2531C49.344 69.2088 49.1775 69.1843 49.0098 69.1801Z" fill="#455A64"/>
<path d="M36.8629 84.8598C37.0069 84.5653 37.2238 84.3124 37.493 84.1253C37.7622 83.9382 38.0748 83.8231 38.4011 83.7908C38.6346 83.7577 38.8724 83.772 39.1004 83.8328C39.3283 83.8936 39.5416 83.9996 39.7277 84.1446C39.9048 84.2833 40.0344 84.4737 40.0984 84.6894C40.1625 84.905 40.1579 85.1353 40.0853 85.3482C39.9581 85.5709 39.7681 85.7513 39.539 85.8669C39.3099 85.9825 39.0519 86.0281 38.7971 85.998C38.2684 85.9387 37.7564 85.7767 37.2897 85.5212C37.1485 85.4668 37.0182 85.3874 36.9052 85.2867C36.855 85.2379 36.8203 85.1754 36.8052 85.1071C36.7902 85.0387 36.7955 84.9675 36.8206 84.9021" fill="#FF9A6C"/>
<path d="M39.0846 82.5015C38.9154 82.5322 39.1654 83.6551 38.3771 84.6549C37.5888 85.6547 36.3583 85.8085 36.3852 85.9738C36.3852 86.0469 36.7005 86.1315 37.212 86.0277C37.8751 85.8859 38.4689 85.5191 38.8924 84.9894C39.2924 84.484 39.48 83.8427 39.4153 83.2013C39.35 82.7245 39.1616 82.4784 39.0846 82.5015Z" fill="#263238"/>
<path d="M39.4261 96.0493C39.4261 96.0493 31.397 100.072 29.2628 105.282C27.1287 110.492 27.5747 113.796 28.2246 119.156C28.8745 124.516 31.7431 144.608 33.1082 148.069C34.1734 150.761 35.5538 154.222 42.6755 152.987C49.7971 151.753 55.1306 150.83 55.1306 150.83V93.9805C55.1306 93.9805 52.7542 98.7795 47.0823 99.2294C43.5099 99.5139 39.4261 96.0493 39.4261 96.0493Z" fill="#FF725E"/>
<path d="M39.5508 139.897C39.728 139.814 39.9119 139.747 40.1007 139.697C40.4583 139.578 40.9813 139.424 41.6388 139.255C43.3362 138.812 45.0634 138.493 46.807 138.301C48.5507 138.106 50.3061 138.037 52.0598 138.093C52.7327 138.116 53.2749 138.147 53.6517 138.186C53.8459 138.194 54.039 138.219 54.2285 138.262C54.0342 138.282 53.8384 138.282 53.644 138.262C53.2595 138.262 52.7288 138.236 52.0559 138.228C50.3102 138.215 48.5653 138.305 46.8301 138.497C45.0955 138.693 43.3737 138.99 41.6734 139.385C41.0197 139.539 40.4929 139.67 40.1353 139.77C39.9454 139.832 39.7495 139.875 39.5508 139.897Z" fill="#263238"/>
<path d="M36.3775 110.145C36.3925 110.248 36.4002 110.352 36.4006 110.456C36.4006 110.679 36.4006 110.975 36.4313 111.348C36.4582 112.117 36.4929 113.244 36.5544 114.628C36.6722 118.231 37.1202 121.816 37.8926 125.338C38.3358 127.27 38.9285 129.165 39.6653 131.006C40.2815 132.506 41.0549 133.937 41.9725 135.274C42.5922 136.171 43.2827 137.017 44.0375 137.804C44.2989 138.089 44.5258 138.289 44.6643 138.435C44.7431 138.505 44.8152 138.582 44.8796 138.666C44.7933 138.606 44.7123 138.539 44.6373 138.466C44.4874 138.327 44.2528 138.139 43.9836 137.858C43.2009 137.088 42.488 136.25 41.8533 135.355C40.919 134.019 40.1338 132.585 39.5115 131.079C38.7565 129.232 38.1521 127.328 37.7041 125.384C36.9237 121.845 36.4922 118.239 36.4159 114.617C36.3698 113.232 36.3583 112.109 36.3583 111.337C36.3583 110.952 36.3583 110.664 36.3583 110.441C36.3549 110.342 36.3614 110.242 36.3775 110.145Z" fill="#263238"/>
<path d="M55.1332 175.976C55.0794 175.976 55.0332 139.857 55.0332 95.3084C55.0332 50.76 55.0794 14.6367 55.1332 14.6367C55.187 14.6367 55.2332 50.7485 55.2332 95.3084C55.2332 139.868 55.1909 175.976 55.1332 175.976Z" fill="#263238"/>
<path d="M59.1579 123.187C59.1579 123.187 60.2577 122.107 59.1771 121.361C58.0966 120.615 57.789 120.592 55.6125 120.976C53.436 121.361 52.0786 122.03 51.894 123.118C51.835 123.419 51.8387 123.729 51.9049 124.029C51.971 124.329 52.0982 124.612 52.2785 124.86C52.2785 124.86 51.1865 125.371 51.2134 127.167L51.8094 128.871C51.8094 128.871 51.0134 130.124 51.3518 131.178C51.5262 131.772 51.8876 132.294 52.3824 132.666C52.3824 132.666 51.7556 134.973 52.3824 136.188C53.0092 137.404 55.028 139.915 55.028 139.915L54.9895 133.335C54.9895 133.335 59.4002 130.467 59.5847 128.99C59.7693 127.513 59.3348 127.117 59.3348 127.117C59.3348 127.117 60.4307 126.083 59.3963 125.16C59.404 125.145 60.3692 124.022 59.1579 123.187Z" fill="#FFBF9D"/>
<path d="M59.2082 127.121C58.8574 127.386 58.4886 127.626 58.1045 127.84C57.4162 128.271 56.4549 128.852 55.4128 129.524C54.8937 129.863 54.4053 130.194 53.9823 130.52C53.6134 130.809 53.2827 131.144 52.9979 131.516C52.8055 131.768 52.6417 132.04 52.5095 132.328C52.47 132.438 52.4238 132.546 52.3711 132.651C52.419 132.203 52.5968 131.779 52.8825 131.432C53.1589 131.038 53.486 130.682 53.8554 130.374C54.2822 130.032 54.7706 129.697 55.2936 129.359C56.3357 128.682 57.3085 128.117 58.0199 127.721C58.3983 127.488 58.7958 127.287 59.2082 127.121Z" fill="#FF9A6C"/>
<path d="M59.4025 125.145C59.2945 125.21 59.1781 125.26 59.0564 125.294L58.0913 125.641C57.2799 125.937 56.1686 126.333 54.9381 126.84C54.3677 127.07 53.814 127.338 53.2807 127.644C52.5853 128.107 52.0274 128.748 51.6657 129.501C51.5657 129.72 51.5349 129.851 51.5195 129.847C51.574 129.373 51.7696 128.925 52.081 128.563C52.3754 128.136 52.7502 127.77 53.1846 127.486C53.7213 127.167 54.2818 126.889 54.8612 126.656C56.084 126.144 57.2222 125.767 58.0451 125.502C58.4604 125.371 58.795 125.275 59.0295 125.214C59.1505 125.175 59.2758 125.152 59.4025 125.145Z" fill="#FF9A6C"/>
<path d="M59.2389 123.09C58.906 123.205 58.5638 123.291 58.2161 123.347C57.5816 123.49 56.7087 123.678 55.7435 123.905C54.7783 124.132 53.9208 124.37 53.3094 124.578C52.698 124.786 52.3557 124.986 52.3365 124.963C52.3173 124.939 52.4096 124.886 52.5595 124.782C52.7829 124.65 53.017 124.536 53.2594 124.443C54.0546 124.145 54.8691 123.901 55.6974 123.713C56.6664 123.482 57.547 123.328 58.1892 123.209C58.5336 123.13 58.8857 123.09 59.2389 123.09Z" fill="#FF9A6C"/>
<path d="M260.063 67.5348C260.746 68.1102 261.624 68.3997 262.515 68.3427C263.406 68.2857 264.24 67.8867 264.844 67.229C265.447 66.5713 265.773 65.7058 265.754 64.8133C265.734 63.9208 265.371 63.0704 264.739 62.4397C265.471 62.2365 266.12 61.8082 266.595 61.2156C267.069 60.623 267.346 59.896 267.384 59.1376C267.423 58.3793 267.222 57.628 266.81 56.9901C266.398 56.3522 265.796 55.8601 265.089 55.5834C265.437 54.9224 265.609 54.1826 265.587 53.4357C265.564 52.6889 265.349 51.9605 264.962 51.3214C264.575 50.6823 264.029 50.1543 263.378 49.7886C262.726 49.423 261.991 49.2322 261.244 49.2347C260.861 48.2185 260.15 47.3592 259.224 46.7934C258.297 46.2277 257.208 45.9879 256.129 46.1123C255.568 45.6302 254.866 45.3408 254.128 45.2866C253.39 45.2324 252.654 45.4163 252.028 45.8112C251.402 46.2061 250.919 46.7913 250.651 47.4809C250.382 48.1704 250.341 48.928 250.534 49.6424" fill="#263238"/>
<path d="M253.751 48.6977L254.408 49.0822C257.607 50.9519 259.985 53.9577 261.068 57.5013C262.151 61.0449 261.86 64.8664 260.253 68.2052C257.15 74.6461 253.643 81.7216 251.674 84.9978C247.594 91.7772 240.138 88.8432 240.138 88.8432L235.908 97.3914L226.849 99.2064L219.631 87.182L235.57 56.5576C239.115 49.1091 246.398 44.96 253.751 48.6977Z" fill="#AE7461"/>
<path d="M240.138 88.8448C240.138 88.8448 235.685 86.5799 232.782 81.0156C232.782 81.0156 232.093 87.2336 239.269 90.6059L240.138 88.8448Z" fill="#6F4439"/>
<path d="M261.428 64.6921C261.428 64.6921 262.128 59.3586 260.659 57.1552C258.867 54.4866 256.19 56.5977 254.198 54.5404C252.207 52.4831 250.499 49.926 246.992 50.3489C243.147 50.8027 243.574 52.9446 241.636 55.8824C233.783 67.7799 229.507 69.941 232.253 63.7808C232.553 63.104 231.099 61.5735 232.395 58.7395C234.091 55.0672 236.421 50.7719 238.64 48.7416C240.509 47.0458 242.535 46.2998 245.585 45.9614C250.399 45.4231 255.037 48.0648 257.982 50.1913C260.928 52.3178 264.846 59.5009 261.428 64.6921Z" fill="#263238"/>
<path d="M232.792 63.8497C232.93 63.594 233.014 63.3131 233.041 63.0238C233.067 62.7345 233.035 62.4428 232.945 62.1664C232.856 61.89 232.711 61.6347 232.52 61.4157C232.329 61.1968 232.096 61.0188 231.834 60.8926C230.488 60.2658 228.646 60.162 227.193 62.8422C224.609 67.6027 229.919 69.2101 230 69.0794C230.081 68.9486 231.726 65.8454 232.792 63.8497Z" fill="#AE7461"/>
<path d="M229.936 66.7299C229.936 66.703 229.821 66.7299 229.648 66.7299C229.405 66.7079 229.18 66.592 229.021 66.4069C228.637 65.9493 228.637 64.9226 229.071 64.0497C229.28 63.6366 229.578 63.2753 229.944 62.9922C230.069 62.8676 230.223 62.7752 230.392 62.7229C230.56 62.6707 230.739 62.6602 230.913 62.6923C231.022 62.7183 231.118 62.7819 231.185 62.8719C231.252 62.9619 231.285 63.0726 231.278 63.1845C231.278 63.3537 231.19 63.4306 231.209 63.4537C231.228 63.4768 231.355 63.4306 231.424 63.2114C231.459 63.0839 231.449 62.9484 231.398 62.8269C231.362 62.7404 231.31 62.6618 231.244 62.5958C231.178 62.5297 231.1 62.4776 231.013 62.4424C230.797 62.3752 230.567 62.3646 230.345 62.4118C230.124 62.4589 229.918 62.5621 229.748 62.7115C229.324 63.0091 228.978 63.4049 228.74 63.8651C228.252 64.8419 228.256 66.0032 228.837 66.5761C228.943 66.6825 229.073 66.7634 229.215 66.8127C229.358 66.862 229.51 66.8784 229.659 66.8607C229.863 66.8376 229.948 66.7453 229.936 66.7299Z" fill="#6F4439"/>
<path d="M238.174 54.8555C238.535 55.6245 238.943 56.4244 239.616 56.9243C240.289 57.4242 241.385 57.4934 241.923 56.8397C242.165 56.5474 242.307 56.1244 242.669 55.9975C243.1 55.8476 243.515 56.2167 243.88 56.4859C245.157 57.4242 247.618 56.8704 248.737 55.7361C248.768 56.092 248.933 56.4228 249.198 56.6619C249.464 56.901 249.81 57.0305 250.167 57.0242C250.753 57.0109 251.332 56.8951 251.879 56.682C252.563 56.4513 253.386 56.3705 253.951 56.8166C254.266 57.0704 254.47 57.4626 254.836 57.6357C255.482 57.9394 256.201 57.3972 256.651 56.8435C257.101 56.2898 257.585 55.6207 258.3 55.5938C258.958 55.5669 259.481 56.109 259.996 56.5243C260.511 56.9396 261.319 57.2319 261.784 56.7628C261.895 56.629 261.978 56.4743 262.027 56.3077C262.077 56.1412 262.092 55.9664 262.073 55.7937C262.023 55.0068 261.709 54.2596 261.182 53.6728C260.656 53.0861 259.946 52.6939 259.169 52.5598C259.394 51.6479 259.343 50.6901 259.023 49.8072C258.703 48.9244 258.128 48.1562 257.372 47.5998C256.615 47.0434 255.711 46.7237 254.773 46.6812C253.835 46.6387 252.905 46.8752 252.102 47.3609C251.868 46.6214 251.46 45.9491 250.912 45.4009C250.363 44.8528 249.69 44.445 248.951 44.2122C248.211 43.9794 247.426 43.9283 246.663 44.0634C245.899 44.1985 245.179 44.5158 244.565 44.9883C244.08 44.5066 243.465 44.1776 242.795 44.042C242.126 43.9065 241.431 43.9704 240.797 44.2259C240.164 44.4813 239.619 44.917 239.23 45.479C238.842 46.0411 238.627 46.7047 238.612 47.3878C237.489 47.3878 236.286 47.7723 235.701 48.7452C235.117 49.7181 235.497 51.2139 236.578 51.5062C236.133 51.7611 235.807 52.1825 235.672 52.6775C235.538 53.1726 235.606 53.7008 235.861 54.146C236.116 54.5912 236.537 54.9168 237.032 55.0513C237.527 55.1858 238.055 55.1181 238.5 54.8632" fill="#263238"/>
<path d="M258.729 54.1379C258.729 54.1379 258.729 54.1725 258.675 54.2225C258.621 54.2724 258.583 54.3609 258.502 54.457C258.253 54.7354 257.961 54.9718 257.637 55.1569C257.122 55.4512 256.545 55.6223 255.953 55.6568C255.167 55.7146 254.383 55.5133 253.722 55.0838L253.861 55.0261C253.753 55.5332 253.449 55.977 253.015 56.2605C252.56 56.5576 252.063 56.7869 251.542 56.9411C251.273 57.048 250.993 57.1253 250.708 57.1718C250.399 57.1949 250.09 57.1407 249.808 57.0142C249.509 56.8932 249.244 56.7005 249.037 56.453C248.829 56.2056 248.686 55.911 248.62 55.5952L248.823 55.6491C248.473 56.0929 248.033 56.4588 247.534 56.7236C247.034 56.9884 246.484 57.1463 245.92 57.1872C245.284 57.2599 244.642 57.125 244.09 56.8027C243.586 56.475 243.141 56.0641 242.775 55.5876H242.932C242.359 56.011 241.689 56.2846 240.983 56.3835C240.65 56.4439 240.308 56.4297 239.982 56.342C239.655 56.2542 239.352 56.095 239.095 55.876C238.666 55.483 238.362 54.9733 238.219 54.4098C238.076 53.8462 238.101 53.2531 238.291 52.7035L238.368 52.8151C237.724 52.7872 237.109 52.5388 236.626 52.1114C236.262 51.7987 235.978 51.403 235.799 50.9577C235.686 50.6786 235.622 50.382 235.611 50.081C235.606 49.9766 235.614 49.8721 235.634 49.7695C235.645 50.1662 235.73 50.5573 235.884 50.9231C236.072 51.3445 236.355 51.7169 236.71 52.0114C237.176 52.4063 237.762 52.6314 238.372 52.6497H238.487L238.449 52.7612C238.277 53.2763 238.259 53.83 238.395 54.3555C238.532 54.8809 238.817 55.3556 239.218 55.7221C239.453 55.9203 239.73 56.0629 240.029 56.1394C240.327 56.216 240.638 56.2245 240.94 56.1644C241.607 56.0637 242.239 55.7995 242.778 55.3953L242.863 55.3299L242.936 55.4107C243.288 55.8623 243.713 56.2521 244.194 56.5643C244.703 56.865 245.297 56.9919 245.886 56.9257C246.419 56.8863 246.938 56.7359 247.411 56.4843C247.883 56.2327 248.297 55.8854 248.627 55.4645L248.785 55.2607L248.831 55.5145C248.891 55.7931 249.018 56.053 249.201 56.2715C249.383 56.4899 249.617 56.6604 249.881 56.7681C250.129 56.8803 250.401 56.9304 250.673 56.9142C250.936 56.869 251.194 56.7968 251.442 56.6989C251.945 56.5555 252.425 56.3392 252.865 56.0567C253.257 55.8032 253.533 55.4053 253.634 54.9492L253.661 54.8146L253.776 54.8915C254.401 55.3087 255.145 55.5112 255.895 55.4683C256.468 55.4453 257.03 55.2942 257.537 55.0261C257.984 54.8027 258.387 54.502 258.729 54.1379Z" fill="#455A64"/>
<path d="M253.367 72.942C253.293 73.0706 253.195 73.1834 253.078 73.2741C252.961 73.3648 252.827 73.4315 252.684 73.4704C252.542 73.5093 252.393 73.5197 252.246 73.501C252.099 73.4822 251.957 73.4347 251.829 73.3612C251.7 73.2972 251.585 73.2081 251.491 73.0992C251.397 72.9903 251.326 72.8638 251.281 72.7269C251.237 72.5901 251.22 72.4458 251.232 72.3025C251.244 72.1591 251.285 72.0197 251.352 71.8922C251.425 71.7637 251.523 71.6508 251.64 71.5602C251.757 71.4695 251.891 71.4028 252.034 71.3639C252.177 71.3249 252.326 71.3145 252.473 71.3333C252.62 71.352 252.761 71.3995 252.89 71.4731C253.019 71.5371 253.133 71.6261 253.227 71.735C253.321 71.8439 253.393 71.9705 253.437 72.1073C253.482 72.2441 253.498 72.3884 253.486 72.5318C253.474 72.6751 253.433 72.8146 253.367 72.942Z" fill="#263238"/>
<path d="M257.493 70.9701C257.296 71.0239 256.889 70.0434 255.843 69.4319C254.797 68.8205 253.728 68.8744 253.689 68.6629C253.689 68.5706 253.928 68.4168 254.405 68.3745C255.043 68.3305 255.678 68.4864 256.224 68.8205C256.766 69.1422 257.192 69.6285 257.439 70.2087C257.612 70.6548 257.585 70.947 257.493 70.9701Z" fill="#263238"/>
<path d="M241.382 74.1783C241.567 74.2667 241.229 75.2742 241.609 76.4278C241.99 77.5814 242.84 78.239 242.74 78.4082C242.698 78.4928 242.401 78.4389 242.013 78.1582C241.504 77.7682 241.127 77.2313 240.932 76.6201C240.736 76.0192 240.736 75.3714 240.932 74.7705C241.086 74.3359 241.298 74.1321 241.382 74.1783Z" fill="#263238"/>
<path d="M243.817 67.983C243.668 68.2368 243.426 68.4224 243.142 68.5C242.858 68.5776 242.555 68.5411 242.298 68.3983C242.169 68.3344 242.054 68.2453 241.96 68.1363C241.866 68.0273 241.795 67.9006 241.751 67.7636C241.707 67.6267 241.691 67.4823 241.703 67.339C241.716 67.1957 241.757 67.0564 241.825 66.9293C241.973 66.6758 242.214 66.4902 242.497 66.4119C242.78 66.3336 243.082 66.3689 243.34 66.5102C243.469 66.5741 243.584 66.6633 243.679 66.7725C243.773 66.8817 243.844 67.0087 243.889 67.146C243.933 67.2833 243.95 67.428 243.937 67.5718C243.925 67.7155 243.884 67.8553 243.817 67.983Z" fill="#263238"/>
<path d="M247.14 65.099C246.944 65.1529 246.533 64.1685 245.491 63.5609C244.449 62.9533 243.376 63.0033 243.337 62.7918C243.314 62.7034 243.572 62.5496 244.053 62.5073C244.691 62.4633 245.326 62.6192 245.871 62.9533C246.414 63.2751 246.839 63.7613 247.087 64.3415C247.275 64.7837 247.233 65.076 247.14 65.099Z" fill="#263238"/>
<path d="M246.085 75.3349C246.116 75.2733 246.827 75.5502 247.958 76.0424C248.239 76.177 248.523 76.2731 248.677 76.1193C248.864 75.8574 248.967 75.5451 248.973 75.2233C249.106 74.4312 249.249 73.5993 249.4 72.7277C250.034 69.19 250.661 66.3483 250.804 66.3752C250.946 66.4021 250.55 69.29 249.911 72.8277C249.75 73.6967 249.596 74.5235 249.446 75.3156C249.421 75.737 249.248 76.136 248.958 76.4423C248.863 76.5121 248.753 76.5598 248.638 76.5818C248.522 76.6037 248.403 76.5994 248.289 76.5692C248.118 76.5203 247.954 76.4506 247.8 76.3616C246.708 75.7848 246.051 75.3964 246.085 75.3349Z" fill="#263238"/>
<path d="M250.075 61.4127C249.81 61.6434 248.829 60.9167 247.499 60.3745C246.168 59.8323 244.976 59.6054 244.957 59.2555C244.957 59.0901 245.28 58.9171 245.841 58.8709C246.574 58.8296 247.305 58.9561 247.981 59.2406C248.657 59.5252 249.259 59.9604 249.741 60.5129C250.094 60.9474 250.198 61.3012 250.075 61.4127Z" fill="#263238"/>
<path d="M258.908 66.9738C258.573 67.1007 257.946 66.4046 257.024 65.8586C256.101 65.3126 255.22 65.0242 255.182 64.6704C255.182 64.505 255.435 64.3358 255.908 64.3089C256.535 64.2999 257.15 64.475 257.677 64.8127C258.214 65.1318 258.643 65.6028 258.912 66.1662C259.096 66.6161 259.062 66.9084 258.908 66.9738Z" fill="#263238"/>
<path d="M245.623 101.4L238.548 93.0785C231.626 92.8324 224.935 87.7412 223.655 79.3352L216.602 76.082L212.949 77.0395L213.107 152.024C213.107 152.024 233.41 131.121 233.41 130.763C233.41 130.405 245.623 101.4 245.623 101.4Z" fill="#FF725E"/>
<path d="M220.086 128.759L227.819 133.985L238.483 113.143L245.623 101.465C245.623 101.465 250.834 106.495 248.7 116.185C246.566 125.875 242.236 136.104 242.236 136.104L239.905 142.51C239.905 142.51 238.183 148.743 236.156 150.674C234.13 152.604 227.377 154.05 224.097 152.412C220.817 150.774 213.822 138.115 213.822 138.115C218.437 135.365 221.128 131.382 220.086 128.759Z" fill="#FF725E"/>
<path d="M241.854 110.734C241.821 110.785 241.785 110.834 241.746 110.88L241.404 111.288L240.1 112.826L235.398 118.29V118.271L231.125 127.304C229.972 129.684 228.899 131.957 227.907 134.03L227.868 133.906C229.357 134.701 230.715 135.719 231.894 136.925C232.822 137.872 233.601 138.954 234.202 140.136C234.591 140.905 234.901 141.712 235.128 142.543C235.209 142.832 235.248 143.062 235.282 143.212C235.303 143.288 235.317 143.365 235.325 143.443C235.293 143.371 235.27 143.297 235.255 143.22C235.209 143.07 235.159 142.835 235.071 142.562C234.821 141.744 234.497 140.949 234.102 140.19C233.494 139.028 232.717 137.964 231.794 137.033C230.611 135.848 229.255 134.849 227.772 134.072L227.695 134.03L227.734 133.949L230.937 127.216C232.514 123.916 234.013 120.825 235.251 118.202L240.024 112.761L241.366 111.25L241.723 110.865C241.762 110.817 241.806 110.773 241.854 110.734Z" fill="#263238"/>
<path d="M219.879 147.841C219.83 147.788 219.788 147.73 219.752 147.668C219.663 147.533 219.548 147.36 219.406 147.137C219.098 146.661 218.667 145.984 218.129 145.142C217.041 143.411 215.518 140.993 213.741 138.162L213.688 138.078L213.776 138.032C215.569 137.123 217.163 135.866 218.463 134.332C219.136 133.521 219.657 132.594 220.002 131.598C220.16 131.127 220.258 130.637 220.294 130.141C220.315 129.903 220.315 129.664 220.294 129.426C220.279 129.312 220.253 129.2 220.217 129.091C220.193 128.996 220.144 128.91 220.075 128.841L220.175 128.684L226.966 133.233L228.888 134.552L229.4 134.909C229.461 134.949 229.519 134.994 229.573 135.044C229.506 135.015 229.443 134.979 229.384 134.936L228.854 134.605L226.885 133.329L220.052 128.837L220.152 128.68C220.263 128.769 220.342 128.892 220.378 129.03C220.418 129.155 220.447 129.284 220.463 129.414C220.495 129.669 220.502 129.927 220.486 130.183C220.45 130.696 220.35 131.202 220.19 131.691C219.849 132.707 219.328 133.654 218.652 134.486C217.335 136.042 215.717 137.314 213.895 138.228L213.93 138.097L218.256 145.111L219.486 147.137L219.809 147.68C219.835 147.732 219.858 147.786 219.879 147.841Z" fill="#263238"/>
<path d="M218.277 127.086L217.87 127.309L213.82 130.554C213.82 130.554 213.028 133.246 213.051 133.419C213.074 133.592 214.909 137.368 214.909 137.368C220.469 134.096 220.292 129.855 220.292 129.855C220.292 129.855 218.485 127.37 218.277 127.086Z" fill="#AE7461"/>
<path d="M212.948 176.591C212.89 176.591 212.848 140.875 212.848 96.8305C212.848 52.7858 212.89 17.0586 212.948 17.0586C213.005 17.0586 213.051 52.7704 213.051 96.8343C213.051 140.898 213.001 176.591 212.948 176.591Z" fill="#263238"/>
<path d="M212.811 68.8867C212.811 68.8867 217.522 70.521 217.991 71.7669C218.251 72.5786 218.18 73.4601 217.795 74.2202C217.795 74.2202 218.402 75.5469 218.156 76.639C217.91 77.731 217.522 77.7926 217.522 77.7926C217.832 77.9799 218.071 78.2671 218.197 78.6073C218.323 78.9474 218.331 79.3204 218.218 79.6652C218.081 80.3727 217.697 81.0082 217.133 81.4572C217.133 81.4572 217.679 83.053 216.98 84.2604C216.28 85.4679 216.122 86.9099 214.795 87.0637C213.469 87.2175 207.358 85.2718 206.889 83.949C206.42 82.6262 208.408 81.9225 208.408 81.9225C208.408 81.9225 204.436 80.7919 204.513 79.4307C204.59 78.0694 206.051 77.6003 206.051 77.6003C206.051 77.6003 204.844 77.0158 205.816 75.8468C206.789 74.6778 208.662 75.3777 209.481 75.4623C209.481 75.4623 209.323 73.7472 211.038 73.8626L212.83 73.8242L212.811 68.8867Z" fill="#AE7461"/>
<path d="M217.59 74.5355C217.558 74.6602 217.51 74.7804 217.448 74.8931C217.344 75.1162 217.186 75.4392 216.975 75.8314C216.871 76.0237 216.752 76.239 216.59 76.4582C216.519 76.5875 216.422 76.7013 216.306 76.7927C216.162 76.8508 216.01 76.8871 215.856 76.9004C215.217 76.9645 214.575 76.9953 213.933 76.9927C213.256 76.9927 212.614 76.9927 212.011 76.9427C211.486 76.8537 210.987 76.6502 210.549 76.3467C210.249 76.1635 209.961 75.9605 209.688 75.7391C209.496 75.5815 209.4 75.4815 209.411 75.4738C209.526 75.5293 209.634 75.5977 209.734 75.6776C209.942 75.8122 210.238 76.0083 210.619 76.2275C211.048 76.4945 211.524 76.676 212.022 76.762C212.603 76.7927 213.245 76.7966 213.918 76.7927C214.591 76.7889 215.233 76.7735 215.806 76.7158C215.937 76.7082 216.066 76.6823 216.19 76.6389C216.286 76.564 216.365 76.4713 216.425 76.3659C216.571 76.1544 216.694 75.9506 216.81 75.7583C217.302 75.0008 217.563 74.5201 217.59 74.5355Z" fill="#6F4439"/>
<path d="M215.513 71.8847C215.017 72.1925 214.577 72.5826 214.213 73.0383C214.097 73.1975 213.996 73.3675 213.913 73.5459L213.886 73.6036H213.821C213.443 73.6011 213.07 73.6839 212.729 73.8459C212.729 73.8459 212.798 73.7305 212.982 73.6228C213.24 73.4748 213.535 73.4028 213.832 73.4152L213.74 73.4729C213.822 73.2794 213.927 73.0962 214.051 72.9268C214.303 72.5731 214.63 72.2801 215.009 72.0693C215.301 71.904 215.505 71.8617 215.513 71.8847Z" fill="#6F4439"/>
<path d="M214.207 70.2441C214.207 70.271 214.061 70.3595 213.823 70.5402C213.539 70.775 213.311 71.069 213.154 71.4016C213.002 71.7359 212.926 72.0996 212.93 72.4667C212.943 72.6241 212.943 72.7823 212.93 72.9397C212.907 72.9397 212.819 72.7782 212.777 72.4783C212.73 72.0817 212.794 71.6798 212.961 71.3173C213.129 70.9549 213.394 70.6459 213.726 70.4249C214.003 70.2633 214.207 70.221 214.207 70.2441Z" fill="#6F4439"/>
<path d="M217.571 77.8592C217.501 78.0167 217.415 78.1662 217.313 78.3053C217.06 78.7029 216.765 79.0717 216.432 79.405C215.932 79.9226 215.258 80.2364 214.54 80.2856C213.721 80.3164 212.895 80.0088 212.033 79.7665C210.307 79.2474 208.765 78.7013 207.653 78.2976C207.1 78.0976 206.65 77.913 206.342 77.8092C206.18 77.7545 206.023 77.685 205.873 77.6016C206.043 77.6271 206.209 77.671 206.369 77.7323L207.7 78.1668C208.822 78.5514 210.368 79.0551 212.091 79.5742C212.956 79.8203 213.775 80.1241 214.533 80.101C215.211 80.0601 215.851 79.7761 216.336 79.3012C216.672 78.983 216.977 78.6341 217.248 78.2591C217.344 78.1169 217.452 77.9831 217.571 77.8592Z" fill="#6F4439"/>
<path d="M217.336 81.5676C217.281 81.6797 217.213 81.7843 217.132 81.8791C216.93 82.1537 216.705 82.411 216.459 82.6482C216.097 83.0049 215.669 83.2871 215.198 83.4788C214.611 83.6946 213.979 83.7607 213.36 83.671C212.749 83.5852 212.152 83.4211 211.583 83.1827C211.06 82.975 210.599 82.7674 210.21 82.602C209.441 82.2636 208.934 82.1252 208.941 82.0944C209.072 82.0942 209.202 82.1163 209.326 82.1598C209.651 82.2464 209.97 82.3503 210.284 82.4713C211.08 82.752 212.137 83.3019 213.402 83.4711C213.99 83.5599 214.591 83.5031 215.152 83.3057C215.606 83.1264 216.025 82.8658 216.386 82.5366C216.99 81.9675 217.305 81.5407 217.336 81.5676Z" fill="#6F4439"/>
<path d="M202.57 117.971C202.57 117.971 201.639 116.564 203.47 115.849C205.3 115.134 208.884 113.965 210.007 113.861C211.13 113.757 217.013 115.214 217.013 115.214C217.013 115.214 219.082 115.822 219.055 117.31L218.671 118.714C219.152 119.265 219.417 119.973 219.417 120.706C219.356 121.383 219.117 122.033 218.724 122.59L218.486 127.373C218.486 127.373 218.275 130.834 216.948 132.23C215.621 133.626 213.445 133.264 213.445 133.264L213.06 133.407C213.06 133.407 210.511 131.457 211.203 128.992L208.319 127.031C208.319 127.031 202.189 126.181 201.87 124.535L201.978 123.686C201.978 123.686 199.698 123.343 199.698 121.763V120.967C199.486 120.761 199.344 120.495 199.292 120.204C199.24 119.914 199.279 119.615 199.405 119.348C199.855 118.418 200.305 118.125 201.328 118.102C201.746 118.121 202.165 118.077 202.57 117.971Z" fill="#AE7461"/>
<path d="M213.203 124.825C212.648 124.844 212.092 124.784 211.553 124.648C211.046 124.56 210.45 124.437 209.784 124.306C209.454 124.241 209.104 124.172 208.746 124.122C208.389 124.072 208.004 124.072 207.616 124.041C206.054 123.945 204.643 123.841 203.62 123.76L202.413 123.653C202.263 123.648 202.115 123.625 201.971 123.583C202.119 123.566 202.269 123.566 202.417 123.583L203.632 123.629C204.655 123.676 206.066 123.756 207.623 123.852C208.008 123.883 208.392 123.895 208.777 123.941C209.162 123.987 209.492 124.068 209.827 124.137L211.584 124.522C212.084 124.633 212.488 124.71 212.768 124.76C212.915 124.77 213.06 124.792 213.203 124.825Z" fill="#6F4439"/>
<path d="M213.99 121.486C213.804 121.518 213.614 121.524 213.425 121.505C213.064 121.505 212.541 121.459 211.887 121.405C211.233 121.351 210.472 121.282 209.622 121.198L208.284 121.063C207.826 121.021 207.342 121.017 206.85 121.002C204.877 120.975 203.089 121.002 201.793 121.002H200.255C200.067 121.006 199.88 120.997 199.693 120.975C199.878 120.936 200.066 120.918 200.255 120.921C200.616 120.921 201.139 120.882 201.793 120.863C203.089 120.825 204.869 120.782 206.857 120.809C207.353 120.809 207.834 120.828 208.307 120.875L209.645 121.021L211.902 121.275L213.441 121.432C213.625 121.44 213.808 121.458 213.99 121.486Z" fill="#6F4439"/>
<path d="M215.125 117.844C214.969 117.908 214.802 117.938 214.633 117.932C214.18 117.945 213.727 117.927 213.276 117.879C212.707 117.829 212.03 117.74 211.284 117.656C210.478 117.55 209.666 117.501 208.854 117.509C208.434 117.53 208.015 117.575 207.6 117.644C207.189 117.702 206.796 117.74 206.42 117.775C205.65 117.84 204.985 117.882 204.416 117.917C203.847 117.952 203.386 117.967 203.066 117.975C202.902 117.993 202.735 117.993 202.57 117.975C202.731 117.932 202.896 117.909 203.063 117.906L204.408 117.782L206.4 117.598C206.785 117.559 207.169 117.517 207.554 117.459C207.973 117.385 208.397 117.338 208.823 117.317C209.647 117.309 210.471 117.363 211.288 117.479L213.272 117.744C213.837 117.813 214.295 117.856 214.614 117.863C214.933 117.871 215.118 117.829 215.125 117.844Z" fill="#6F4439"/>
</svg>
