<svg width="32" height="32" viewBox="0 0 32 32" fill="none" xmlns="http://www.w3.org/2000/svg">
<g clip-path="url(#clip0_1031_19971)">
<rect width="32" height="32" rx="4" fill="#DA3D16"/>
<path d="M21.6416 6.25684C22.9332 5.96376 24.015 6.25235 24.8857 7.12305C25.768 8.00518 26.0566 9.0864 25.752 10.3662C25.4472 11.646 24.8857 12.7012 24.0674 13.5312C23.4057 14.2277 22.6073 14.7344 21.6729 15.0508C20.7382 15.367 19.8266 15.374 18.9385 15.0723L17.9199 16.1172L26 24.1973L24.0752 26.1133L15.9961 18.0508L7.91504 26.1133L6 24.1973L17.0059 13.1748C16.681 12.252 16.673 11.3171 16.9834 10.3711C17.2939 9.42509 17.8036 8.59191 18.5117 7.87207C19.3069 7.08852 20.3504 6.54993 21.6416 6.25684ZM14.542 12.6436L10.6582 16.5264L7.66309 13.5312C6.52542 12.3937 6.01177 11.1373 6.12207 9.76172C6.2323 8.38602 6.81861 7.13191 7.88086 6L14.542 12.6436ZM20.9932 8.37891C20.6492 8.39306 20.3433 8.53365 20.0762 8.80078C19.9454 8.93158 19.8374 9.08038 19.7529 9.24609C19.6685 9.41175 19.6027 9.6208 19.5557 9.87207C19.5086 10.1234 19.4776 10.4297 19.4629 10.79C19.4482 11.1505 19.4443 11.5922 19.4502 12.1152L19.4561 12.5654L19.9062 12.5713C20.4293 12.5772 20.871 12.5733 21.2314 12.5586C21.5918 12.5439 21.8981 12.5129 22.1494 12.4658C22.4007 12.4188 22.6097 12.353 22.7754 12.2686C22.9411 12.1841 23.0899 12.0761 23.2207 11.9453C23.4878 11.6781 23.6284 11.3723 23.6426 11.0283C23.6566 10.6842 23.5402 10.3888 23.2939 10.1426C23.1578 10.0064 22.9971 9.90727 22.8115 9.84668C22.6259 9.7861 22.4313 9.76834 22.2285 9.79297C22.2531 9.5902 22.2354 9.39562 22.1748 9.20996C22.1142 9.02437 22.0151 8.86372 21.8789 8.72754C21.6326 8.48133 21.3373 8.36484 20.9932 8.37891Z" fill="white"/>
</g>
<defs>
<clipPath id="clip0_1031_19971">
<rect width="32" height="32" fill="white"/>
</clipPath>
</defs>
</svg>
