<svg width="120" height="27" viewBox="0 0 120 27" fill="none" xmlns="http://www.w3.org/2000/svg">
<g clip-path="url(#clip0_270_13859)">
<path fill-rule="evenodd" clip-rule="evenodd" d="M0 20.4555L1.62683 22.0825L8.48957 15.2346L15.3521 22.0825L16.9865 20.4555L10.1237 13.5929L10.9889 12.7055C11.7432 12.9619 12.5173 12.9557 13.3111 12.6871C14.1048 12.4184 14.7827 11.9882 15.3448 11.3966C16.0399 10.6916 16.5169 9.79553 16.7757 8.70846C17.0345 7.62139 16.7892 6.70322 16.0398 5.95396C15.3003 5.21446 14.3821 4.96916 13.2851 5.21808C12.1883 5.467 11.3021 5.92423 10.6267 6.58978C10.0251 7.20121 9.59253 7.90869 9.32883 8.71223C9.06512 9.51577 9.07126 10.3095 9.34724 11.0934L0 20.4555ZM11.4246 10.1945L11.4298 10.5765L11.8118 10.5817C12.2563 10.5867 12.6317 10.583 12.9379 10.5704C13.2442 10.5579 13.5041 10.5317 13.7176 10.4917C13.9312 10.4517 14.1084 10.3958 14.2491 10.324C14.3899 10.2523 14.5158 10.1608 14.6269 10.0497C14.8539 9.82274 14.9734 9.56307 14.9853 9.27074C14.9972 8.9784 14.8986 8.72765 14.6895 8.51848C14.5737 8.40276 14.437 8.31918 14.2793 8.26772C14.1216 8.21626 13.9566 8.201 13.7844 8.22193C13.8053 8.04968 13.79 7.88469 13.7386 7.72698C13.6871 7.56926 13.6035 7.43254 13.4878 7.31683C13.2786 7.10766 13.0279 7.00904 12.7356 7.02099C12.4432 7.03294 12.1836 7.15241 11.9565 7.37942C11.8455 7.4905 11.754 7.61642 11.6823 7.75717C11.6105 7.89792 11.5546 8.07508 11.5146 8.28864C11.4746 8.50221 11.4484 8.76212 11.4359 9.06838C11.4233 9.37463 11.4196 9.75001 11.4246 10.1945Z" fill="#212121"/>
<path d="M1.41252 11.3966L3.95627 13.9406L7.25452 10.6423L1.59733 5C0.695133 5.96135 0.197225 7.02624 0.103604 8.19465C0.00983536 9.36307 0.446142 10.4304 1.41252 11.3966Z" fill="#212121"/>
<path d="M29.1069 15.7316C28.7073 15.7316 28.4148 15.724 28.2293 15.7088C27.6585 18.4733 27.3731 20.3264 27.3731 21.2682C26.574 21.6631 25.5251 21.8606 24.2265 21.8606C23.8698 21.8606 23.5273 21.8378 23.1991 21.7923C23.1991 20.8353 23.5915 18.6176 24.3764 15.1392C25.1612 11.6455 25.5536 9.48097 25.5536 8.64554C25.5536 8.38731 25.468 8.09111 25.2968 7.75694C25.1398 7.42276 24.9757 7.15694 24.8045 6.95948L24.569 6.64049L24.6546 6.09366C25.1969 5.98733 26.1102 5.87341 27.3945 5.75189C28.6931 5.61518 29.8846 5.54683 30.9691 5.54683C32.5674 5.54683 33.7518 5.89619 34.5224 6.59492C35.293 7.29365 35.6783 8.23541 35.6783 9.42021C35.6783 11.2582 35.1217 12.7696 34.0087 13.9544C32.9099 15.1392 31.2759 15.7316 29.1069 15.7316ZM29.0641 13.7721C29.8632 13.7721 30.4768 13.286 30.9049 12.3139C31.3473 11.3417 31.5685 10.1721 31.5685 8.80503C31.5685 7.69618 31.226 7.14175 30.541 7.14175L29.8561 7.23289C29.8561 7.82529 29.4565 10.005 28.6574 13.7721H29.0641Z" fill="#212121"/>
<path d="M40.5588 13.1797C40.5588 13.848 40.3804 14.8885 40.0237 16.3012C39.6669 17.6986 39.4885 18.61 39.4885 19.0353C39.4885 19.4606 39.567 19.6733 39.724 19.6733C39.881 19.6733 40.1664 19.5973 40.5802 19.4454L40.7728 19.3543L41.1581 20.4935C40.673 20.8885 40.0665 21.2378 39.3387 21.5416C38.6252 21.8454 37.9759 21.9973 37.3908 21.9973C36.8058 21.9973 36.342 21.8226 35.9995 21.4733C35.6713 21.1239 35.5072 20.6226 35.5072 19.9695C35.5072 19.3011 35.6784 18.291 36.0209 16.9391C36.3777 15.5721 36.556 14.7062 36.556 14.3417C36.556 13.7797 36.3705 13.248 35.9995 12.7468L35.8283 12.4961L35.8925 12.1088C36.6345 11.8658 38.0758 11.7442 40.2163 11.7442C40.4446 12.0177 40.5588 12.4961 40.5588 13.1797ZM38.9534 9.96705C38.3113 9.96705 37.8047 9.78477 37.4336 9.42021C37.0769 9.05566 36.8985 8.59237 36.8985 8.03035C36.8985 7.45314 37.1197 6.97467 37.5621 6.59492C38.0187 6.19999 38.5681 6.00252 39.2103 6.00252C39.8524 6.00252 40.3519 6.16201 40.7086 6.481C41.0654 6.79998 41.2438 7.24808 41.2438 7.82529C41.2438 8.4025 41.0226 8.90376 40.5802 9.32908C40.1521 9.75439 39.6098 9.96705 38.9534 9.96705Z" fill="#212121"/>
<path d="M47.2544 13.1569C46.812 13.1569 46.4339 13.5746 46.1199 14.41C45.806 15.2455 45.649 16.0885 45.649 16.9391C45.649 18.8075 46.1556 19.7416 47.1688 19.7416C47.8109 19.7416 48.5387 19.4151 49.3521 18.7619L50.0371 19.7644C49.4377 20.4632 48.7171 21.01 47.8752 21.4049C47.0475 21.7999 46.2198 21.9973 45.3922 21.9973C44.2791 21.9973 43.373 21.6404 42.6737 20.9264C41.9888 20.1973 41.6463 19.1037 41.6463 17.6455C41.6463 15.8835 42.1529 14.4404 43.166 13.3164C44.1935 12.1923 45.5349 11.6303 47.1902 11.6303C48.2604 11.6303 49.1024 11.8658 49.716 12.3366C50.3296 12.7923 50.6364 13.3771 50.6364 14.0911C50.6364 14.7898 50.4366 15.3974 50.0371 15.9138C49.5662 15.9138 49.0524 15.8227 48.4959 15.6404C47.9536 15.4429 47.5184 15.1999 47.1902 14.9113L47.5113 13.2025C47.4257 13.1721 47.34 13.1569 47.2544 13.1569Z" fill="#212121"/>
<path d="M53.3512 6.66328C53.3512 6.26834 53.3155 5.91898 53.2442 5.61518C54.6569 5.20506 55.9412 5 57.0971 5C57.2398 5.18228 57.3111 5.5848 57.3111 6.20758C57.3111 7.31644 56.9901 9.443 56.3479 12.5873C57.4895 11.9493 58.4955 11.6303 59.366 11.6303C60.2508 11.6303 60.9215 11.8202 61.3781 12.1999C61.849 12.5797 62.0845 13.1113 62.0845 13.7949C62.0845 15.1164 61.164 16.0581 59.3232 16.6202C59.7799 18.7163 60.2222 19.7644 60.6503 19.7644L61.6778 19.4682L62.1487 20.5847C61.7919 20.8885 61.2425 21.1999 60.5005 21.5188C59.7584 21.8378 59.0449 21.9973 58.36 21.9973C57.675 21.9973 57.1542 21.7239 56.7974 21.1771C56.4407 20.6302 56.2123 19.9163 56.1124 19.0353C56.0126 18.1543 55.9626 17.167 55.9626 16.0733C56.6476 15.891 57.1898 15.6328 57.5894 15.2986C57.989 14.9493 58.1887 14.6075 58.1887 14.2733C58.1887 13.924 58.0175 13.7493 57.675 13.7493C57.4039 13.7493 57.0828 13.8328 56.7118 13.9999C56.355 14.167 56.091 14.3265 55.9198 14.4784C55.1492 17.9417 54.7639 20.2581 54.7639 21.4277C53.6651 21.6859 52.3594 21.815 50.8468 21.815C50.8325 21.6935 50.8254 21.5492 50.8254 21.3821C50.8254 20.5923 51.2463 18.2834 52.0883 14.4556C52.9302 10.6126 53.3512 8.01516 53.3512 6.66328Z" fill="#212121"/>
<path d="M72.7609 11.7898H72.9322C72.8608 12.1847 72.7395 13.0354 72.5683 14.3417C72.183 17.3189 71.7692 19.567 71.3268 21.0859C70.228 24.9138 68.4656 26.8277 66.0397 26.8277C65.312 26.8277 64.7197 26.6606 64.2631 26.3264C63.8207 26.0074 63.5995 25.5821 63.5995 25.0505C63.5995 24.534 63.7137 24.1011 63.942 23.7517C64.1846 23.4176 64.5271 23.1366 64.9695 22.9087C65.7258 22.5138 66.6533 22.1872 67.7521 21.929C67.8663 21.3518 67.9377 20.9796 67.9662 20.8125C66.8531 21.4505 65.7971 21.7695 64.7982 21.7695C63.4283 21.7695 62.7433 21.0556 62.7433 19.6277C62.7433 19.1265 62.9003 18.1467 63.2143 16.6885C63.5282 15.2151 63.6852 14.1974 63.6852 13.6354C63.6852 13.0733 63.6495 12.6556 63.5781 12.3822C65.262 12.0025 66.5677 11.8126 67.4953 11.8126C67.6094 11.9949 67.6665 12.3594 67.6665 12.9063C67.6665 13.4379 67.5024 14.4784 67.1742 16.0278C66.8603 17.5771 66.7033 18.4885 66.7033 18.7619C66.7033 19.2328 66.9173 19.4682 67.3454 19.4682C67.588 19.4682 67.8663 19.3999 68.1802 19.2632C68.2944 18.4885 68.4514 17.3113 68.6512 15.7316C68.8652 14.1366 69.015 13.043 69.1007 12.4506C69.4717 12.2683 70.0282 12.1164 70.7703 11.9949C71.5266 11.8582 72.1901 11.7898 72.7609 11.7898ZM65.1193 24.6176C65.1193 24.9669 65.3334 25.1416 65.7615 25.1416C65.9755 25.1416 66.2538 24.9821 66.5963 24.6631C66.953 24.3593 67.2384 23.9036 67.4525 23.296C65.897 23.5847 65.1193 24.0252 65.1193 24.6176Z" fill="#212121"/>
<path d="M79.6723 15.7316C79.2727 15.7316 78.9802 15.724 78.7947 15.7088C78.2239 18.4733 77.9385 20.3264 77.9385 21.2682C77.1393 21.6631 76.0905 21.8606 74.7919 21.8606C74.4352 21.8606 74.0927 21.8378 73.7645 21.7923C73.7645 20.8353 74.1569 18.6176 74.9417 15.1392C75.7266 11.6455 76.119 9.48097 76.119 8.64554C76.119 8.38731 76.0334 8.09111 75.8622 7.75694C75.7052 7.42276 75.5411 7.15694 75.3699 6.95948L75.1344 6.64049L75.22 6.09366C75.7623 5.98733 76.6756 5.87341 77.9599 5.75189C79.2584 5.61518 80.45 5.54683 81.5345 5.54683C83.1328 5.54683 84.3172 5.89619 85.0878 6.59492C85.8584 7.29365 86.2436 8.23541 86.2436 9.42021C86.2436 11.2582 85.6871 12.7696 84.5741 13.9544C83.4753 15.1392 81.8413 15.7316 79.6723 15.7316ZM79.6295 13.7721C80.4286 13.7721 81.0422 13.286 81.4703 12.3139C81.9127 11.3417 82.1339 10.1721 82.1339 8.80503C82.1339 7.69618 81.7914 7.14175 81.1064 7.14175L80.4215 7.23289C80.4215 7.82529 80.0219 10.005 79.2228 13.7721H79.6295Z" fill="#212121"/>
<path d="M91.7877 20.448C91.3311 20.8733 90.7318 21.2378 89.9897 21.5416C89.2477 21.8454 88.5698 21.9973 87.9562 21.9973C87.3569 21.9973 86.8646 21.815 86.4793 21.4505C86.094 21.0707 85.9013 20.5315 85.9013 19.8328C85.9013 19.1341 86.2581 17.1898 86.9716 13.9999C87.6994 10.7949 88.0632 8.41769 88.0632 6.86834C88.0632 6.53416 88.0204 6.10885 87.9348 5.5924C89.2762 5.19747 90.5748 5 91.8306 5C91.959 5.24304 92.0232 5.63797 92.0232 6.1848C92.0232 7.2177 91.6593 9.47338 90.9315 12.9518C90.218 16.4151 89.8613 18.4125 89.8613 18.9442C89.8613 19.4758 89.9469 19.7416 90.1181 19.7416C90.2608 19.7416 90.5676 19.6429 91.0386 19.4454L91.274 19.3315L91.7877 20.448Z" fill="#212121"/>
<path d="M102.809 12.4961C102.509 13.4835 102.252 14.6607 102.038 16.0278C101.824 17.3796 101.717 18.329 101.717 18.8758C101.717 19.4075 101.796 19.6733 101.952 19.6733L103.023 19.3543L103.408 20.4935C102.951 20.8733 102.366 21.2226 101.653 21.5416C100.954 21.8454 100.333 21.9973 99.7906 21.9973C98.863 21.9973 98.2779 21.572 98.0354 20.7214C96.908 21.572 95.9091 21.9973 95.0386 21.9973C94.1824 21.9973 93.5189 21.6631 93.048 20.9948C92.577 20.3265 92.3416 19.3695 92.3416 18.1239C92.3416 16.4075 92.7554 14.8961 93.5831 13.5898C94.4108 12.2835 95.5024 11.6303 96.8581 11.6303C97.6001 11.6303 98.3564 11.8506 99.127 12.2911C99.2412 12.0177 99.3339 11.8202 99.4053 11.6987C100.433 11.6987 101.567 11.9645 102.809 12.4961ZM96.3658 17.8505C96.3658 18.61 96.4157 19.0885 96.5156 19.286C96.6155 19.4834 96.801 19.5822 97.0721 19.5822C97.3432 19.5822 97.6072 19.4682 97.8641 19.2404C97.9212 17.4784 98.1923 15.6328 98.6775 13.7037C98.4635 13.567 98.2137 13.4987 97.9283 13.4987C97.6572 13.4987 97.4075 13.6657 97.1791 13.9999C96.9651 14.3341 96.801 14.7518 96.6868 15.2531C96.4728 16.21 96.3658 17.0758 96.3658 17.8505Z" fill="#212121"/>
<path d="M111.055 13.6582L109.214 13.4987C108.643 16.2176 108.329 17.7974 108.272 18.2379C108.23 18.6784 108.208 19.0429 108.208 19.3315C108.208 19.6049 108.294 19.7416 108.465 19.7416C108.665 19.7416 109.043 19.6049 109.599 19.3315L110.113 20.4252C109.657 20.8657 109.079 21.2378 108.379 21.5416C107.68 21.8454 107.002 21.9973 106.346 21.9973C105.704 21.9973 105.19 21.8226 104.805 21.4733C104.419 21.1087 104.227 20.5999 104.227 19.9467C104.227 19.2935 104.405 18.2455 104.762 16.8024C105.119 15.3594 105.354 14.2885 105.468 13.5898C105.126 13.6202 104.619 13.6733 103.949 13.7493C103.891 13.4303 103.863 13.1341 103.863 12.8607C103.863 12.5721 103.899 12.2531 103.97 11.9037H105.682C105.697 11.7063 105.704 11.0455 105.704 9.92148L105.661 8.98731C107.045 8.50124 108.365 8.2582 109.621 8.2582C109.721 8.50124 109.771 8.92655 109.771 9.53414C109.771 10.1265 109.678 10.9164 109.492 11.9037H111.419C111.419 12.5265 111.298 13.1113 111.055 13.6582Z" fill="#212121"/>
<path d="M110.753 17.5999C110.753 15.7164 111.288 14.2506 112.358 13.2025C113.443 12.1544 114.777 11.6303 116.361 11.6303C117.46 11.6303 118.338 11.8885 118.994 12.405C119.665 12.9063 120 13.5822 120 14.4328C120 15.0556 119.822 15.61 119.465 16.0961C119.108 16.5822 118.673 16.9543 118.159 17.2126C117.075 17.729 116.133 18.0404 115.334 18.1467L114.799 18.2151C114.956 19.2176 115.426 19.7189 116.211 19.7189C116.554 19.7189 116.932 19.6429 117.346 19.491C117.76 19.3239 118.088 19.1568 118.33 18.9898L118.694 18.7619L119.379 19.7416C119.379 19.7416 119.301 19.8252 119.144 19.9923C119.058 20.0834 118.851 20.2657 118.523 20.5391C118.209 20.7973 117.874 21.0252 117.517 21.2226C117.175 21.4201 116.732 21.5948 116.19 21.7467C115.648 21.9138 115.105 21.9973 114.563 21.9973C113.35 21.9973 112.408 21.6252 111.738 20.8809C111.081 20.1214 110.753 19.0277 110.753 17.5999ZM114.713 16.7113C115.127 16.6505 115.541 16.2936 115.954 15.6404C116.368 14.9721 116.575 14.4176 116.575 13.9771C116.575 13.5214 116.454 13.2936 116.211 13.2936C115.855 13.2936 115.526 13.5898 115.227 14.1822C114.927 14.7746 114.756 15.6176 114.713 16.7113Z" fill="#212121"/>
</g>
<defs>
<clipPath id="clip0_270_13859">
<rect width="120" height="27" fill="white"/>
</clipPath>
</defs>
</svg>
