<svg width="168" height="40" viewBox="0 0 168 40" fill="none" xmlns="http://www.w3.org/2000/svg">
<path fill-rule="evenodd" clip-rule="evenodd" d="M0 30.6376L2.27757 32.9155L11.8854 23.3285L21.4929 32.9155L23.781 30.6376L14.1732 21.0301L15.3845 19.7878C16.4405 20.1466 17.5242 20.138 18.6355 19.762C19.7468 19.3858 20.6958 18.7835 21.4827 17.9553C22.4558 16.9682 23.1236 15.7137 23.486 14.1918C23.8483 12.6699 23.5049 11.3845 22.4557 10.3355C21.4204 9.30024 20.1349 8.95683 18.5991 9.30531C17.0636 9.6538 15.823 10.2939 14.8773 11.2257C14.0352 12.0817 13.4295 13.0722 13.0604 14.1971C12.6912 15.3221 12.6998 16.4333 13.0861 17.5307L0 30.6376ZM15.9944 16.2723L16.0017 16.8071L16.5365 16.8144C17.1588 16.8214 17.6843 16.8161 18.1131 16.7986C18.5418 16.7811 18.9057 16.7443 19.2047 16.6883C19.5037 16.6323 19.7517 16.5541 19.9488 16.4536C20.1458 16.3532 20.3221 16.2252 20.4776 16.0696C20.7954 15.7518 20.9627 15.3883 20.9794 14.979C20.9961 14.5698 20.8581 14.2187 20.5652 13.9259C20.4032 13.7639 20.2118 13.6468 19.991 13.5748C19.7702 13.5028 19.5393 13.4814 19.2981 13.5107C19.3274 13.2695 19.306 13.0386 19.234 12.8178C19.162 12.597 19.0449 12.4056 18.8829 12.2436C18.5901 11.9507 18.239 11.8127 17.8298 11.8294C17.4205 11.8461 17.057 12.0134 16.7392 12.3312C16.5836 12.4867 16.4557 12.663 16.3552 12.86C16.2547 13.0571 16.1765 13.3051 16.1205 13.6041C16.0645 13.9031 16.0277 14.267 16.0102 14.6957C15.9927 15.1245 15.9874 15.65 15.9944 16.2723Z" fill="#212121"/>
<path d="M1.97753 17.9553L5.53877 21.5168L10.1563 16.8993L2.23626 9C0.973186 10.3459 0.276116 11.8367 0.145046 13.4725C0.0137695 15.1083 0.624599 16.6025 1.97753 17.9553Z" fill="#212121"/>
<path d="M40.7496 24.0242C40.1903 24.0242 39.7807 24.0135 39.521 23.9923C38.7219 27.8626 38.3223 30.457 38.3223 31.7755C37.2035 32.3284 35.7351 32.6049 33.9171 32.6049C33.4177 32.6049 32.9382 32.573 32.4787 32.5092C32.4787 31.1694 33.0281 28.0646 34.1269 23.1948C35.2257 18.3037 35.7751 15.2734 35.7751 14.1038C35.7751 13.7422 35.6552 13.3276 35.4155 12.8597C35.1957 12.3919 34.966 12.0197 34.7263 11.7433L34.3966 11.2967L34.5165 10.5311C35.2757 10.3823 36.5542 10.2228 38.3523 10.0526C40.1703 9.86126 41.8385 9.76556 43.3568 9.76556C45.5943 9.76556 47.2525 10.2547 48.3313 11.2329C49.4102 12.2111 49.9496 13.5296 49.9496 15.1883C49.9496 17.7614 49.1704 19.8774 47.6121 21.5361C46.0738 23.1948 43.7863 24.0242 40.7496 24.0242ZM40.6897 21.2809C41.8085 21.2809 42.6675 20.6004 43.2669 19.2394C43.8862 17.8784 44.1959 16.241 44.1959 14.327C44.1959 12.7747 43.7164 11.9985 42.7574 11.9985L41.7985 12.126C41.7985 12.9554 41.2391 16.007 40.1203 21.2809H40.6897Z" fill="#212121"/>
<path d="M56.7823 20.4515C56.7823 21.3872 56.5326 22.8439 56.0331 24.8216C55.5337 26.7781 55.284 28.054 55.284 28.6495C55.284 29.2449 55.3938 29.5426 55.6136 29.5426C55.8333 29.5426 56.2329 29.4363 56.8123 29.2236L57.082 29.096L57.6214 30.691C56.9421 31.2439 56.0931 31.733 55.0742 32.1583C54.0753 32.5836 53.1663 32.7963 52.3472 32.7963C51.5281 32.7963 50.8788 32.5517 50.3993 32.0626C49.9398 31.5735 49.7101 30.8717 49.7101 29.9573C49.7101 29.0216 49.9498 27.6074 50.4293 25.7148C50.9287 23.8009 51.1785 22.5887 51.1785 22.0784C51.1785 21.2915 50.9187 20.5472 50.3993 19.8455L50.1596 19.4946L50.2495 18.9523C51.2883 18.6121 53.3061 18.4419 56.3028 18.4419C56.6225 18.8247 56.7823 19.4946 56.7823 20.4515ZM54.5348 15.9539C53.6358 15.9539 52.9265 15.6987 52.4071 15.1883C51.9076 14.6779 51.6579 14.0293 51.6579 13.2425C51.6579 12.4344 51.9676 11.7645 52.5869 11.2329C53.2262 10.68 53.9954 10.4035 54.8944 10.4035C55.7934 10.4035 56.4926 10.6268 56.9921 11.0734C57.4915 11.52 57.7413 12.1473 57.7413 12.9554C57.7413 13.7635 57.4316 14.4653 56.8123 15.0607C56.2129 15.6561 55.4538 15.9539 54.5348 15.9539Z" fill="#212121"/>
<path d="M66.1562 20.4196C65.5369 20.4196 65.0074 21.0045 64.5679 22.1741C64.1284 23.3437 63.9086 24.5239 63.9086 25.7148C63.9086 28.3305 64.6179 29.6383 66.0363 29.6383C66.9353 29.6383 67.9542 29.1811 69.0929 28.2667L70.0519 29.6702C69.2128 30.6484 68.2039 31.414 67.0252 31.9669C65.8665 32.5198 64.7078 32.7963 63.549 32.7963C61.9907 32.7963 60.7221 32.2965 59.7432 31.297C58.7843 30.2763 58.3048 28.7451 58.3048 26.7036C58.3048 24.2368 59.014 22.2166 60.4324 20.6429C61.8709 19.0693 63.7488 18.2825 66.0663 18.2825C67.5646 18.2825 68.7433 18.6121 69.6024 19.2713C70.4615 19.9093 70.891 20.728 70.891 21.7275C70.891 22.7057 70.6113 23.5563 70.0519 24.2794C69.3926 24.2794 68.6734 24.1518 67.8943 23.8966C67.1351 23.6201 66.5258 23.2799 66.0663 22.8758L66.5158 20.4834C66.3959 20.4409 66.276 20.4196 66.1562 20.4196Z" fill="#212121"/>
<path d="M74.6917 11.3286C74.6917 10.7757 74.6417 10.2866 74.5418 9.86126C76.5197 9.28709 78.3177 9 79.9359 9C80.1357 9.25519 80.2356 9.81873 80.2356 10.6906C80.2356 12.243 79.7861 15.2202 78.8871 19.6222C80.4853 18.729 81.8938 18.2825 83.1124 18.2825C84.3511 18.2825 85.29 18.5483 85.9293 19.0799C86.5886 19.6116 86.9183 20.3559 86.9183 21.3128C86.9183 23.1629 85.6297 24.4814 83.0525 25.2682C83.6918 28.2029 84.3111 29.6702 84.9105 29.6702L86.3489 29.2555L87.0082 30.8185C86.5087 31.2439 85.7396 31.6798 84.7007 32.1264C83.6618 32.573 82.6629 32.7963 81.704 32.7963C80.745 32.7963 80.0158 32.4135 79.5164 31.6479C79.0169 30.8823 78.6973 29.8829 78.5574 28.6495C78.4176 27.416 78.3477 26.0338 78.3477 24.5027C79.3066 24.2475 80.0658 23.8859 80.6252 23.4181C81.1845 22.929 81.4642 22.4505 81.4642 21.9827C81.4642 21.4936 81.2245 21.249 80.745 21.249C80.3654 21.249 79.9159 21.366 79.3965 21.5999C78.897 21.8338 78.5275 22.0571 78.2877 22.2698C77.2089 27.1183 76.6695 30.3613 76.6695 31.9988C75.1312 32.3603 73.3032 32.5411 71.1855 32.5411C71.1655 32.3709 71.1555 32.1689 71.1555 31.935C71.1555 30.8292 71.7449 27.5968 72.9236 22.2379C74.1023 16.8577 74.6917 13.2212 74.6917 11.3286Z" fill="#212121"/>
<path d="M101.865 18.5057H102.105C102.005 19.0586 101.835 20.2495 101.596 22.0784C101.056 26.2464 100.477 29.3937 99.8575 31.5203C98.3192 36.8793 95.8519 39.5587 92.4556 39.5587C91.4367 39.5587 90.6077 39.3248 89.9684 38.857C89.349 38.4104 89.0394 37.8149 89.0394 37.0706C89.0394 36.3476 89.1992 35.7415 89.5188 35.2524C89.8585 34.7846 90.338 34.3912 90.9573 34.0722C92.0161 33.5193 93.3147 33.0621 94.853 32.7006C95.0128 31.8925 95.1127 31.3715 95.1527 31.1375C93.5944 32.0307 92.116 32.4773 90.7175 32.4773C88.7996 32.4773 87.8407 31.4778 87.8407 29.4788C87.8407 28.777 88.0604 27.4054 88.5 25.3639C88.9395 23.3011 89.1592 21.8763 89.1592 21.0895C89.1592 20.3027 89.1093 19.7179 89.0094 19.3351C91.3668 18.8035 93.1948 18.5376 94.4934 18.5376C94.6532 18.7928 94.7331 19.3032 94.7331 20.0688C94.7331 20.8131 94.5034 22.2698 94.0439 24.4389C93.6044 26.608 93.3846 27.8839 93.3846 28.2667C93.3846 28.9259 93.6843 29.2555 94.2836 29.2555C94.6233 29.2555 95.0128 29.1598 95.4523 28.9684C95.6122 27.8839 95.8319 26.2358 96.1116 24.0242C96.4113 21.7913 96.6211 20.2602 96.7409 19.4308C97.2604 19.1756 98.0395 18.963 99.0784 18.7928C100.137 18.6014 101.066 18.5057 101.865 18.5057ZM91.167 36.4646C91.167 36.9537 91.4667 37.1982 92.0661 37.1982C92.3657 37.1982 92.7553 36.975 93.2348 36.5284C93.7342 36.1031 94.1338 35.4651 94.4335 34.6145C92.2559 35.0185 91.167 35.6352 91.167 36.4646Z" fill="#212121"/>
<path d="M111.541 24.0242C110.982 24.0242 110.572 24.0135 110.313 23.9923C109.513 27.8626 109.114 30.457 109.114 31.7755C107.995 32.3284 106.527 32.6049 104.709 32.6049C104.209 32.6049 103.73 32.573 103.27 32.5092C103.27 31.1694 103.82 28.0646 104.918 23.1948C106.017 18.3037 106.567 15.2734 106.567 14.1038C106.567 13.7422 106.447 13.3276 106.207 12.8597C105.987 12.3919 105.758 12.0197 105.518 11.7433L105.188 11.2967L105.308 10.5311C106.067 10.3823 107.346 10.2228 109.144 10.0526C110.962 9.86126 112.63 9.76556 114.148 9.76556C116.386 9.76556 118.044 10.2547 119.123 11.2329C120.202 12.2111 120.741 13.5296 120.741 15.1883C120.741 17.7614 119.962 19.8774 118.404 21.5361C116.865 23.1948 114.578 24.0242 111.541 24.0242ZM111.481 21.2809C112.6 21.2809 113.459 20.6004 114.058 19.2394C114.678 17.8784 114.987 16.241 114.987 14.327C114.987 12.7747 114.508 11.9985 113.549 11.9985L112.59 12.126C112.59 12.9554 112.031 16.007 110.912 21.2809H111.481Z" fill="#212121"/>
<path d="M128.503 30.6272C127.864 31.2226 127.024 31.733 125.986 32.1583C124.947 32.5836 123.998 32.7963 123.139 32.7963C122.3 32.7963 121.61 32.5411 121.071 32.0307C120.532 31.499 120.262 30.7441 120.262 29.7659C120.262 28.7877 120.761 26.0657 121.76 21.5999C122.779 17.1128 123.289 13.7848 123.289 11.6157C123.289 11.1478 123.229 10.5524 123.109 9.82936C124.987 9.27645 126.805 9 128.563 9C128.743 9.34025 128.832 9.89316 128.832 10.6587C128.832 12.1048 128.323 15.2627 127.304 20.1326C126.305 24.9811 125.806 27.7776 125.806 28.5219C125.806 29.2662 125.926 29.6383 126.165 29.6383C126.365 29.6383 126.795 29.5001 127.454 29.2236L127.784 29.0641L128.503 30.6272Z" fill="#212121"/>
<path d="M143.932 19.4946C143.513 20.8769 143.153 22.5249 142.853 24.4389C142.554 26.3315 142.404 27.6606 142.404 28.4262C142.404 29.1705 142.514 29.5426 142.733 29.5426L144.232 29.096L144.771 30.691C144.132 31.2226 143.313 31.7117 142.314 32.1583C141.335 32.5836 140.466 32.7963 139.707 32.7963C138.408 32.7963 137.589 32.2008 137.249 31.0099C135.671 32.2008 134.273 32.7963 133.054 32.7963C131.855 32.7963 130.926 32.3284 130.267 31.3927C129.608 30.457 129.278 29.1173 129.278 27.3735C129.278 24.9705 129.858 22.8546 131.016 21.0257C132.175 19.1969 133.703 18.2825 135.601 18.2825C136.64 18.2825 137.699 18.5908 138.778 19.2075C138.938 18.8247 139.068 18.5483 139.167 18.3781C140.606 18.3781 142.194 18.7503 143.932 19.4946ZM134.912 26.9907C134.912 28.054 134.982 28.7239 135.122 29.0003C135.262 29.2768 135.521 29.415 135.901 29.415C136.281 29.415 136.65 29.2555 137.01 28.9365C137.09 26.4697 137.469 23.8859 138.149 21.1852C137.849 20.9938 137.499 20.8981 137.1 20.8981C136.72 20.8981 136.37 21.132 136.051 21.5999C135.751 22.0677 135.521 22.6525 135.362 23.3543C135.062 24.694 134.912 25.9062 134.912 26.9907Z" fill="#212121"/>
<path d="M155.477 21.1214L152.9 20.8981C152.101 24.7047 151.661 26.9163 151.581 27.533C151.521 28.1497 151.491 28.6601 151.491 29.0641C151.491 29.4469 151.611 29.6383 151.851 29.6383C152.131 29.6383 152.66 29.4469 153.439 29.0641L154.158 30.5953C153.519 31.212 152.71 31.733 151.731 32.1583C150.752 32.5836 149.803 32.7963 148.884 32.7963C147.985 32.7963 147.266 32.5517 146.727 32.0626C146.187 31.5522 145.917 30.8398 145.917 29.9254C145.917 29.011 146.167 27.5436 146.667 25.5234C147.166 23.5032 147.496 22.0039 147.656 21.0257C147.176 21.0683 146.467 21.1427 145.528 21.249C145.448 20.8024 145.408 20.3877 145.408 20.005C145.408 19.6009 145.458 19.1543 145.558 18.6652H147.955C147.975 18.3888 147.985 17.4637 147.985 15.8901L147.925 14.5822C149.863 13.9017 151.711 13.5615 153.469 13.5615C153.609 13.9017 153.679 14.4972 153.679 15.3478C153.679 16.1772 153.549 17.283 153.289 18.6652H155.986C155.986 19.5371 155.817 20.3559 155.477 21.1214Z" fill="#212121"/>
<path d="M155.054 26.6398C155.054 24.0029 155.803 21.9508 157.302 20.4834C158.82 19.0161 160.688 18.2825 162.906 18.2825C164.444 18.2825 165.673 18.644 166.592 19.367C167.531 20.0688 168 21.0151 168 22.206C168 23.0779 167.75 23.854 167.251 24.5346C166.751 25.2151 166.142 25.7361 165.423 26.0976C163.904 26.8206 162.586 27.2566 161.467 27.4054L160.718 27.5011C160.938 28.9046 161.597 29.6064 162.696 29.6064C163.175 29.6064 163.705 29.5001 164.284 29.2874C164.863 29.0535 165.323 28.8196 165.663 28.5857L166.172 28.2667L167.131 29.6383C167.131 29.6383 167.021 29.7553 166.801 29.9892C166.681 30.1168 166.392 30.372 165.932 30.7547C165.493 31.1163 165.023 31.4353 164.524 31.7117C164.044 31.9882 163.425 32.2327 162.666 32.4454C161.907 32.6793 161.148 32.7963 160.388 32.7963C158.69 32.7963 157.372 32.2752 156.433 31.2332C155.514 30.1699 155.054 28.6388 155.054 26.6398ZM160.598 25.3958C161.177 25.3107 161.757 24.811 162.336 23.8966C162.916 22.9609 163.205 22.1847 163.205 21.568C163.205 20.93 163.035 20.611 162.696 20.611C162.196 20.611 161.737 21.0257 161.317 21.8551C160.898 22.6844 160.658 23.8647 160.598 25.3958Z" fill="#212121"/>
</svg>
